<svg xmlns="http://www.w3.org/2000/svg" viewBox="0 0 78.3 69.6"><defs><style>.a{fill:#044a2b;}.b{fill:#faae1a;}.c{fill:#0f4929;}.d{fill:#faae1c;}.e{fill:#ffd541;}</style></defs><path class="a" d="M247.8,186.3c-1.5-.9-17-9.7-17-21.6V150.5a42.7,42.7,0,0,1,17-4.1h.2a42.7,42.7,0,0,1,17,4.1v14.2c0,11.9-15.5,20.7-17,21.6h-.2Z" transform="translate(-208.5 -140.5)"/><path class="a" d="M248,148h-.2a38.9,38.9,0,0,0-15.6,3.7v13c0,10.9,14.2,19,15.6,19.8h.2c1.4-.8,15.6-8.9,15.6-19.8v-13A38.9,38.9,0,0,0,248,148" transform="translate(-208.5 -140.5)"/><path class="b" d="M247.6,184.6c-2.1-1.2-15.6-9.1-15.6-19.9V151.6h.1a41.5,41.5,0,0,1,15.5-3.7h.6a41.5,41.5,0,0,1,15.5,3.7h.1v13.1c0,10.8-13.5,18.7-15.6,19.9l-.3.2Zm-15.1-32.7v12.8c0,4.5,2.4,9.1,7.2,13.5a42.5,42.5,0,0,0,8.2,6,42.5,42.5,0,0,0,8.2-6c4.8-4.4,7.2-9,7.2-13.5V151.9a37.7,37.7,0,0,0-15.4-3.7h-.1a37.6,37.6,0,0,0-15.3,3.7" transform="translate(-208.5 -140.5)"/><path class="b" d="M247.9,178.3c-1-.5-10.5-5.9-10.5-13.2v-8.7a27.4,27.4,0,0,1,10.5-2.5h0a27.4,27.4,0,0,1,10.5,2.5v8.7c0,7.3-9.5,12.7-10.5,13.2Z" transform="translate(-208.5 -140.5)"/><polygon class="b" points="52.3 13.9 52.7 14.8 53.8 15 53 15.7 53.2 16.7 52.3 16.2 51.4 16.7 51.6 15.7 50.8 15 51.8 14.8 52.3 13.9"/><polygon class="b" points="52.3 23.1 52.7 24 53.8 24.2 53 24.9 53.2 25.9 52.3 25.4 51.4 25.9 51.6 24.9 50.8 24.2 51.8 24 52.3 23.1"/><polygon class="b" points="48.8 31.6 49.3 32.5 50.3 32.7 49.6 33.4 49.7 34.4 48.8 33.9 47.9 34.4 48.1 33.4 47.4 32.7 48.4 32.5 48.8 31.6"/><polygon class="b" points="26.4 13.9 26 14.8 25 15 25.7 15.7 25.5 16.7 26.4 16.2 27.4 16.7 27.2 15.7 27.9 15 26.9 14.8 26.4 13.9"/><polygon class="b" points="26.4 23.1 26 24 25 24.2 25.7 24.9 25.5 25.9 26.4 25.4 27.4 25.9 27.2 24.9 27.9 24.2 26.9 24 26.4 23.1"/><polygon class="b" points="29.9 31.6 29.5 32.5 28.4 32.7 29.2 33.4 29 34.4 29.9 33.9 30.8 34.4 30.6 33.4 31.4 32.7 30.4 32.5 29.9 31.6"/><path class="c" d="M265.7,184.3a45.2,45.2,0,0,0-35.7,0v-5.4a45.2,45.2,0,0,1,35.7,0Z" transform="translate(-208.5 -140.5)"/><path class="d" d="M265.7,184.4h0a45.2,45.2,0,0,0-35.7,0h0v-5.4h0a45.1,45.1,0,0,1,35.8,0h0v5.4h-.1m-17.8-3.8a44,44,0,0,1,17.8,3.7V179a45.2,45.2,0,0,0-35.7,0v5.3a44.2,44.2,0,0,1,17.9-3.7" transform="translate(-208.5 -140.5)"/><polygon class="c" points="21.7 44 24.6 44 24.6 42.9 21.7 44"/><path class="d" d="M233.2,184.6h-3l3-1.1h0v1.1h0m-2.7-.1h2.6v-1Z" transform="translate(-208.5 -140.5)"/><polygon class="c" points="21.2 40.9 17.6 42.3 20.8 43.2 18.2 45.9 24.5 44.4 21.2 44.2 21.2 40.9"/><path class="d" d="M226.7,186.4h0l2.6-2.6-3.1-.9h-.1a.1.1,0,0,1,.1-.1l3.5-1.3h.1v3.2l3.2.3h0l-6.2,1.5h-.1m-.4-3.6,3.1.8h0l-2.5,2.6,5.8-1.4-3-.2h0v-3.1Z" transform="translate(-208.5 -140.5)"/><polygon class="c" points="57 44 54.1 44 54.1 42.9 57 44"/><path class="d" d="M265.6,184.6h-3v-1.1h0l3,1.1h0m-2.9-.1h2.6l-2.6-1Z" transform="translate(-208.5 -140.5)"/><polygon class="c" points="57.5 40.9 61.1 42.3 57.9 43.2 60.5 45.9 54.2 44.4 57.5 44.2 57.5 40.9"/><path class="d" d="M269.1,186.4H269l-6.2-1.5h0l3.2-.3v-3.2h.1l3.5,1.3a.1.1,0,0,1,.1.1h-.1l-3.1.9,2.6,2.6h0m-6-1.5,5.8,1.4-2.5-2.6h0l3.1-.8-3.4-1.3v3.1H266Zm2.9-.3Z" transform="translate(-208.5 -140.5)"/><path class="b" d="M233.3,180.6v-.9h0a4.6,4.6,0,0,0-.3.9,5.6,5.6,0,0,1-.4,1.2h-.2l-.3-.9-.3-.8h0v1a3.8,3.8,0,0,1-.1,1h-.2c0-.8.1-1.5.1-2.3h.4l.3.9.3.7h0a2.9,2.9,0,0,1,.2-.9,5.6,5.6,0,0,1,.4-1.2h.3c.1.7.1,1.4.2,2.2h-.3a3.1,3.1,0,0,0-.1-1" transform="translate(-208.5 -140.5)"/><path class="b" d="M234.8,181.1c-.5.2-.8,0-.8-.5a1,1,0,0,1,.8-1.1c.4-.2.7.1.7.6a1,1,0,0,1-.7,1Zm0-.2a.8.8,0,0,0,.4-.7c0-.3-.1-.6-.4-.5a.7.7,0,0,0-.5.8c0,.3.2.5.5.4Z" transform="translate(-208.5 -140.5)"/><path class="b" d="M235.9,179.7v-.5h.2a.4.4,0,0,0,.1.3h0a.7.7,0,0,1,.4-.5h.1v.3h-.1a.7.7,0,0,0-.4.5h0v.9h-.3Z" transform="translate(-208.5 -140.5)"/><path class="b" d="M238.1,179.8v.4h-.3v-.2h0a.9.9,0,0,1-.5.3.3.3,0,0,1-.5-.3c0-.4.4-.7,1-.8h0c0-.1-.1-.3-.4-.3l-.4.3V179l.6-.3c.5-.1.6.2.6.5Zm-.3-.3c-.3,0-.7.2-.7.5s.1.2.3.2l.4-.4h0Z" transform="translate(-208.5 -140.5)"/><path class="b" d="M238.5,177.8h.3V180h-.3Z" transform="translate(-208.5 -140.5)"/><path class="b" d="M239.5,178h-.2c0-.1,0-.2.2-.2s.1,0,.1.1,0,.2-.1.2Zm-.2,1.9v-1.6h.3v1.6h-.3" transform="translate(-208.5 -140.5)"/><path class="b" d="M240.4,177.8v.3h.5v.2h-.5v.8a.3.3,0,0,0,.3.3h.1v.3h-.2c-.2.1-.3,0-.3,0s-.1-.2-.1-.4v-.9h-.3v-.2h.3v-.3h.2" transform="translate(-208.5 -140.5)"/><path class="b" d="M241.3,178l.4.9v.3h0c0-.1.1-.2.1-.4l.3-.9h.3c-.1.4-.3.8-.4,1.2a2.7,2.7,0,0,1-.6,1.1l-.3.2c-.1,0-.1-.1-.1-.2l.2-.2.3-.3h0L241,178h.3" transform="translate(-208.5 -140.5)"/><path class="b" d="M244.6,179.2,244,177h.3l.3,1.1c.1.3.1.5.2.8h0a2.4,2.4,0,0,1,.2-.8l.3-1.2h.3c.1.4.1.8.2,1.1a2.4,2.4,0,0,1,.2.8h0l.2-.8.3-1.1h.3a18.7,18.7,0,0,1-.7,2.2h-.3l-.3-1.1c0-.3-.1-.5-.1-.7h0a2.5,2.5,0,0,1-.2.7l-.3,1.2h-.3" transform="translate(-208.5 -140.5)"/><path class="b" d="M247.2,177.2l-.2-.2.2-.2a.2.2,0,1,1,0,.4Zm-.1,1.9v-1.6h.3v1.6h-.3" transform="translate(-208.5 -140.5)"/><path class="b" d="M247.8,178.8h.4a.3.3,0,0,0,.3-.3l-.3-.3c-.3-.1-.4-.2-.4-.4a.5.5,0,0,1,.5-.5h.4v.2h-.4c-.1,0-.2.1-.2.3s.1.2.3.2a.5.5,0,0,1,.4.5c0,.3-.2.5-.6.5h-.5v-.2" transform="translate(-208.5 -140.5)"/><path class="b" d="M250.6,176.8v2.3h-.3v-.3h0a.5.5,0,0,1-.5.3.7.7,0,0,1-.7-.8c0-.5.3-.9.7-.8l.5.2h0v-.9h.3m-.3,1.4V178c-.1-.1-.2-.3-.4-.3s-.5.2-.5.6.1.6.4.6a.5.5,0,0,0,.5-.3v-.4Z" transform="translate(-208.5 -140.5)"/><path class="b" d="M251.7,179.2a.7.7,0,0,1-.7-.8c0-.6.3-.9.8-.8a.9.9,0,0,1,.8.9.7.7,0,0,1-.9.7Zm.1-.2c.2,0,.4-.2.4-.6s-.1-.6-.4-.6-.5.3-.5.6.2.6.4.6Z" transform="translate(-208.5 -140.5)"/><path class="b" d="M252.9,178.1v-.4h.3v.3h0c.1-.1.2-.3.5-.2a.9.9,0,0,1,.5.3h.5c.2,0,.5.2.5.8v.9h-.3v-.9a.6.6,0,0,0-.3-.6l-.4.2v1.2h-.3v-.9c0-.3-.1-.5-.3-.5l-.4.2v1.1h-.3Z" transform="translate(-208.5 -140.5)"/><path class="b" d="M258.3,179.2l-.9-.2v.8l1,.2v.2l-1.3-.2v-2.3l1.2.3v.2l-.9-.2v.7l.9.2Z" transform="translate(-208.5 -140.5)"/><path class="b" d="M258.8,180.3V179h-.3v-.2h.3c0-.3,0-.5.2-.6h.6v.2h-.2c-.3,0-.3.2-.3.4h.3v.2h-.3v1.4h-.3" transform="translate(-208.5 -140.5)"/><path class="b" d="M259.7,180.6v-1.4h-.2v-.2h.2a.8.8,0,0,1,.2-.5h.4l.2.2v.2h-.2c-.2-.1-.3.1-.3.4h.4v.2H260v1.3h-.3" transform="translate(-208.5 -140.5)"/><path class="b" d="M261.3,181a1,1,0,0,1-.8-1c0-.5.4-.8.8-.6a1.1,1.1,0,0,1,.7,1c0,.6-.4.8-.7.6Zm0-.2c.2.1.4-.1.4-.4s-.1-.7-.4-.8-.5.2-.5.5a.8.8,0,0,0,.5.7Z" transform="translate(-208.5 -140.5)"/><path class="b" d="M262.4,180.3v-.5h.2a.4.4,0,0,0,.1.3h0c0-.2.2-.3.4-.2h.1v.3c-.1,0-.1,0-.1-.1s-.4.1-.4.3h0v.9h-.3v-1.1" transform="translate(-208.5 -140.5)"/><path class="b" d="M263.9,179.9v.4h.4v.3l-.4-.2v.9c0,.2,0,.3.2.4h.2v.2H264l-.3-.3c-.1-.1-.1-.2-.1-.4v-.9h-.2v-.2h.2v-.3h.3" transform="translate(-208.5 -140.5)"/><path class="b" d="M243.7,178.3c0,.2-.2.3-.4.3a.3.3,0,0,1-.3-.3c0-.2.1-.4.3-.4a.4.4,0,0,1,.4.4" transform="translate(-208.5 -140.5)"/><path class="b" d="M256.5,178.8c0,.2-.2.3-.4.3a.3.3,0,0,1-.3-.3c0-.2.1-.4.3-.4a.4.4,0,0,1,.4.4" transform="translate(-208.5 -140.5)"/><path class="b" d="M246.9,164.2a2.6,2.6,0,0,1,2.1.9,2.9,2.9,0,0,1-.4,3.7,3.2,3.2,0,0,0,1.1-2.3c0-1.3-1.4-2.8-2.8-2.3" transform="translate(-208.5 -140.5)"/><path class="b" d="M246.7,143.9s-.1.1-.2-.1,0-.4-.3-.4a.2.2,0,0,1,.3.1c.2.2.1.4.2.4" transform="translate(-208.5 -140.5)"/><path class="b" d="M246.1,143.4l-.2.2-.2.3h.2a.5.5,0,0,0,.7,0,.4.4,0,0,1-.6,0c-.4-.3.1-.6.1-.6" transform="translate(-208.5 -140.5)"/><path class="a" d="M253,171.9a1.6,1.6,0,0,0,.2-1c1.3-.1,1.4-.3,1.4-.4a.8.8,0,0,0,.2-.5,2.1,2.1,0,0,0,1.3-.3l.2-.4v-1.7a.5.5,0,0,0,.3-.4v-.9a.3.3,0,0,0-.3-.3c0-2-.1-2.1-.3-2.2l-.5-.2c0-.3,0-.4-.1-.5h-.1l-.4-.4-.3-.5a.7.7,0,0,0-.6-.2l-.2-.2a2.5,2.5,0,0,0-.1-.8,5.5,5.5,0,0,1,.2-2.1,21.1,21.1,0,0,0,.1-2.3.7.7,0,0,0,.4-.6l.3-.3a.8.8,0,0,0,.4-.6h.1c.1-.2.3-.4.3-.6a.4.4,0,0,0-.1-.3l.2-.3a2,2,0,0,0,.1-.7c0-.2.1-.6,0-.8a1.4,1.4,0,0,1-.2-.6v-.2a.5.5,0,0,0-.1-.5c0-.1-.1-.1-.2-.2a.1.1,0,0,0,0-.2V150h0c.1-.1.1-.2.1-.5v-.7h0c.2-.1.2-.2.3-.4a1.8,1.8,0,0,1,.5-.7h.6c.2.2.6.5.9.3l.3-.3.2-.2a.4.4,0,0,0,.1-.3c.1-.1.1-.2.1-.4a1.8,1.8,0,0,0-.3-1.1l-.2-.2c.1-.1,0-.3,0-.5l-.3-.4v-.4h0a2.3,2.3,0,0,0-.7-.6h-.4a1.7,1.7,0,0,0-1-.8,1.2,1.2,0,0,0-1.2,0l-.7.4c-.3.2-.5.4-.7.4h0a3,3,0,0,0-1.5.7h0a.6.6,0,0,0,0-.6l-.2-.3v-.3c0-.3.2-1.1-.4-1.6l-.8-.2h-.2a.3.3,0,0,1-.1-.2.4.4,0,0,0-.5.1h-1.4a.5.5,0,0,0-.6-.2H246l-.2.2h-.1a.4.4,0,0,0-.6.1,1,1,0,0,0-.3.8h-.1a1.1,1.1,0,0,0-.2.8v.2h0a.3.3,0,0,1-.1.2h-.4c-.2,0-.3,0-.3-.1a.9.9,0,0,0-.9-.3c-.2-.4-.5-.9-1.1-.9s-1.4,1.2-1.6,1.6l-.7.4h-.2c-.2.5-.4,1-.6,1.1a3.1,3.1,0,0,0-.8,1.5c0,.3.3.5.4.6a2.2,2.2,0,0,0,.5.6l.3.2a1.1,1.1,0,0,0,.4.9h.1a.7.7,0,0,0,.6.4c.2.1.4-.1.8-.3l.3-.3-.2.3a.9.9,0,0,0-.1,1c0,.1.1.1.1.2H241a.9.9,0,0,0-.3.6v.4a.4.4,0,0,0-.1.3c-.1.2,0,.4.2.7h0c-.1.1-.1.3-.1.6a.8.8,0,0,0,.2,1v.2a.9.9,0,0,0,.3.8l.6.6a7.8,7.8,0,0,0,.4,2.8,6,6,0,0,1-.2,3.1l-.4.2a.7.7,0,0,0-.7.4.4.4,0,0,0-.1.3,1.2,1.2,0,0,0-.6.6v.3a1.3,1.3,0,0,0-.9.9,11.5,11.5,0,0,0-.2,1.6c-.1.2-.4.6-.3,1a.5.5,0,0,0,.4.3,4.7,4.7,0,0,0,.3,2.1c.3.5,1,.5,1.3.5h0a.8.8,0,0,0,.5.8h1.1a1,1,0,0,0,.1.9m7-30.5h0m-8.7,10.7h0m14.3,3.1h0Z" transform="translate(-208.5 -140.5)"/><path class="a" d="M253.2,171.9h-.4c0-.1.3-.7.2-1v-.2h.2c.5-.1,1.2-.1,1.3-.3s.1-.2.1-.4v-.2h.2l1.1-.2.2-.3v-1.8h.1c.1-.1.2-.1.2-.2v-.9a.1.1,0,0,0-.1-.1h-.2V166a10.4,10.4,0,0,0-.1-2h0l-.5-.2h-.2v-.4h-.1l-.4-.4h0l-.3-.5h-.6l-.3-.3h0a2.5,2.5,0,0,0-.1-.8,6.3,6.3,0,0,1,.2-2.2,13.5,13.5,0,0,0,.1-2.2h.1a.9.9,0,0,0,.3-.5l.4-.5h0a.5.5,0,0,0,.3-.4h0a.1.1,0,0,0,.1-.1h0a.9.9,0,0,0,.3-.5V154h0a.8.8,0,0,1,.1-.3,1.5,1.5,0,0,0,.1-.6h0a.8.8,0,0,0,0-.7,1.9,1.9,0,0,1-.2-.7v-.2c0-.1.1-.2,0-.4s-.1-.1-.2-.2h-.2v-.2h0c.1,0,.1-.1.1-.4v-.9h.2v-.3h.1a2.5,2.5,0,0,1,.5-.7c.2-.2.6-.1.8-.1h.1c.1.1.4.3.6.2a.2.2,0,0,0,.2-.2h.2c.1-.1.1-.1.1-.2h.1v-.3a3,3,0,0,0-.2-1h-.3c.1-.2,0-.3,0-.4s-.1-.3-.2-.4v-.2h0v-.2h0a.8.8,0,0,0-.6-.5h-.3l-.2-.2h0c-.1-.1-.4-.6-.8-.7h-.1a1.1,1.1,0,0,0-1-.1l-.7.5c-.3.2-.5.4-.7.4h-.1c-.5.2-1.1.3-1.3.6h-.1l-.3.2v-.4h0a.3.3,0,0,0,0-.4v-.3h-.1c-.1-.1-.1-.2-.1-.4a1.2,1.2,0,0,0-.4-1.4.7.7,0,0,0-.6-.2h-2.3a.4.4,0,0,0-.5-.1h-.7l-.4.2h-.1a.6.6,0,0,0-.5.2c-.2.2-.2.4-.3.6h0c-.2.2-.3.4-.2.6v.4h-.3v.2h-.4c-.4,0-.5-.1-.5-.2h0a1.1,1.1,0,0,0-.7-.3h-.2v-.2c-.1-.1-.4-.7-.9-.7s-1.2,1.2-1.4,1.5h0l-.8.3h-.1a6.7,6.7,0,0,1-.6,1.2,2.6,2.6,0,0,0-.8,1.3.4.4,0,0,0,.3.4h.1a.6.6,0,0,0,.4.5h.4a1.4,1.4,0,0,0,.2.7h.3c.1.2.2.3.4.3s.4-.1.7-.3h.3l.6-.4-.3.6-.2.3a.8.8,0,0,0-.1.8h0v.3h-.2a.8.8,0,0,0-.2.5v.4h.1l-.2.2c-.1.1,0,.2.1.4h.1a.7.7,0,0,0-.1.5h0a.6.6,0,0,0,.1.8.4.4,0,0,1,.1.3.6.6,0,0,0,.3.6l.6.7h0a7.8,7.8,0,0,0,.4,2.8,6.5,6.5,0,0,1-.2,3.2h-.5l-.6.3a.5.5,0,0,0-.1.3v.2h-.2c-.1,0-.3.2-.4.5v.4h-.2a1.2,1.2,0,0,0-.7.7c-.1.6-.2,1.5-.2,1.6h0a.6.6,0,0,0-.3.7l.3.3h.1a4.3,4.3,0,0,0,.3,2c.2.4.9.4,1.1.4h.2v.2a.6.6,0,0,0,.4.6h1.2v.3a2.3,2.3,0,0,0,.1.7l-.2.4a1.7,1.7,0,0,1-.3-1l-.9-.2a.9.9,0,0,1-.6-.7,1.7,1.7,0,0,1-1.3-.6,4.3,4.3,0,0,1-.3-2,.5.5,0,0,1-.3-.4.9.9,0,0,1,.2-1.1c.1-.3.1-1.1.2-1.7a1.6,1.6,0,0,1,.9-.9v-.2c.1-.5.4-.7.6-.7v-.3a1,1,0,0,1,.9-.5h.3a7,7,0,0,0,.1-2.9,9.9,9.9,0,0,1-.4-2.8l-.5-.6a1.2,1.2,0,0,1-.4-.9h0a1.3,1.3,0,0,1-.2-1.2,1.3,1.3,0,0,1,.1-.6c-.3-.3-.3-.6-.2-.7a.4.4,0,0,1,.1-.3v-.4a.9.9,0,0,1,.3-.7h0c0-.1-.1-.4,0-.6a.7.7,0,0,1-.6.1.8.8,0,0,1-.8-.5h0a2.6,2.6,0,0,1-.5-.9l-.3-.3-.5-.6a1.1,1.1,0,0,1-.3-.7,3,3,0,0,1,.8-1.6h0a3.8,3.8,0,0,0,.5-1.1l.3-.2.7-.3c.3-.7.9-1.7,1.7-1.7s1,.6,1.2.8a1.1,1.1,0,0,1,.9.5h.4a1.3,1.3,0,0,1,.2-.9h.1a1.9,1.9,0,0,1,.3-.9.7.7,0,0,1,.9-.2h.2a.7.7,0,0,1,.6-.2h.2a1.1,1.1,0,0,1,.8.1h1.1a.6.6,0,0,1,.8-.1c.1,0,.1.1.2.3h0l.9.3c.7.5.5,1.4.5,1.7h.1l.2.3c0,.1,0,.2.1.2l1.1-.4h.1l.5-.3.8-.5a1.6,1.6,0,0,1,1.4,0,1.8,1.8,0,0,1,1,.9h.3c.5.2.8.5.8.7h.1v.2h.1l.3.4v.5l.2.2a2.4,2.4,0,0,1,.3,1.2.9.9,0,0,1-.1.5.8.8,0,0,1-.2.4H258c0,.2-.2.3-.3.4s-.7.1-1.1-.3h-.4s-.2.1-.4.6h0l-.3.4v.6c0,.3,0,.4-.1.5h0v.2l.2.2c.2.2.1.5.1.7h0a1.1,1.1,0,0,0,.2.5,1.6,1.6,0,0,1,0,1,2.3,2.3,0,0,1-.1.7l-.2.3h.1a1.5,1.5,0,0,1-.3.8h-.1c0,.3-.3.5-.4.6s-.3.2-.3.3-.2.4-.4.6-.1,1.7-.1,2.2a6.8,6.8,0,0,0-.2,2,2.5,2.5,0,0,1,.1.8h.1l.6.2a2.1,2.1,0,0,1,.4.6c.1.1.3.2.4.4h.1c.1.1.1.2.1.5l.4.2c.3.1.4.2.4,2.1a.5.5,0,0,1,.3.5v.9a.5.5,0,0,1-.3.5v1h0v.6a.9.9,0,0,1-.3.6,2.5,2.5,0,0,1-1.3.3.6.6,0,0,1-.1.4c-.1.2-.3.4-1.3.5a2.6,2.6,0,0,1-.3.8m-12.3-21.6,14.1-.4Z" transform="translate(-208.5 -140.5)"/><path class="e" d="M252.6,171.8s.7-.7.1-1.2,1.6,0,1.7-.2a2.6,2.6,0,0,0,.1-.7s1.5.1,1.5-.4v-2s.3,0,.3-.1v-.9H256a16.2,16.2,0,0,0-.1-2.2l-.8-.3s.1-.5.1-.6,0,.1-.1-.1l-.4-.4-.3-.5h-.5l-.4-.4a3.7,3.7,0,0,0-.1-.8,6.8,6.8,0,0,1,.2-2.3c.1-.9.1-2.3.1-2.3s.4-.3.4-.5a1.9,1.9,0,0,1,.4-.6l.3-.3c0-.2.4-.5.4-.7s-.1-.3-.1-.3l.2-.4a2.1,2.1,0,0,0,.1-.6,1.6,1.6,0,0,0,0-.7,1.4,1.4,0,0,1-.2-.7c0-.2.1-.4,0-.5l-.3-.3s.1-.2,0-.2v-.6c.1-.1.1-.1.1-.4v-1.1h.2c.1,0,.4-.8.8-1a1.2,1.2,0,0,1,.9,0s.3.4.5.2l.2-.2.3-.2a.1.1,0,0,0,0-.2s.1,0,.1-.3a2,2,0,0,0-.2-.9.4.4,0,0,0-.3-.2,1.1,1.1,0,0,0,0-.6l-.3-.6v-.2a1.1,1.1,0,0,0-.5-.4h-.4l-.2-.2s-.3-.7-.8-.7a1.1,1.1,0,0,0-1-.1,8,8,0,0,1-1.4.9c-.4.1-1.2.3-1.3.6s-.4.2-.6.5-.2.2-.2.2.3-.3.2-.6.2-.5,0-.8-.4-.4-.3-.7a1.3,1.3,0,0,0-.3-1.3c-.5-.3-.9-.2-1-.4h-.1s0-.2-.2,0-.3.2-.3.1h-.4l-.4.2h-.5s-.2-.3-.4-.2h-.4s-.1-.2-.3,0l-.5.3c-.2,0-.3-.2-.5,0a1.2,1.2,0,0,0-.2.7c0,.1-.4.5-.3.7s.2.2.1.4-.3.3-.2.6h-.4c-.3,0,.2-.2-.2-.2s-.5-.1-.6-.2-.4-.3-.6-.2h-.3s-.2-.8-.8-.8-1.2,1.3-1.3,1.6l-.9.3a4,4,0,0,1-.7,1.2,3.3,3.3,0,0,0-.7,1.3c0,.2.3.4.3.4s.2.5.5.5.1.3.2.3.3-.2.4,0-.2,0-.2.2a1.1,1.1,0,0,0,.3.7c.2.1.2.4.5.4s1.1-.8,1.3-.6.1.4-.1.8,0,.7,0,1-.4.3-.4.7.1.5.1.5-.5.2-.1.7h.1a.8.8,0,0,0,0,.7s-.4.5,0,.8-.1.6.3.9a1.8,1.8,0,0,1,.7.9,8.5,8.5,0,0,0,.4,2.7,7.1,7.1,0,0,1-.2,3.4c-.2.3-1,.2-1.1.5a1,1,0,0,0-.1.4.6.6,0,0,0-.6.5c-.1.4.1.5.1.5a.9.9,0,0,0-1,.6c-.1.7-.2,1.8-.2,1.8a.8.8,0,0,0-.3.7c.2.3.4.2.4.2a9,9,0,0,0,.2,2.1c.3.4,1.1.4,1.1.4h.3a.7.7,0,0,0,.3.7h1.4a1,1,0,0,0,.2,1.3Z" transform="translate(-208.5 -140.5)"/><path class="a" d="M252.6,171.9h.1a1,1,0,0,0,.1-1.4v.2a4.2,4.2,0,0,0,1.8-.3,2,2,0,0,0,.1-.7h-.1c.1,0,1.1.1,1.4-.2l.2-.3v-2H256c.1,0,.4,0,.4-.2v-.9h-.3a9.1,9.1,0,0,0-.1-2.3l-.9-.3h.1a1.8,1.8,0,0,0,.1-.6h-.2l-.3-.4h0l-.3-.5H254l-.5-.3h.1a5.1,5.1,0,0,0-.1-1,6.3,6.3,0,0,1,.2-2.2c.1-.9.1-2.3.1-2.3h0c0-.1.4-.4.4-.6l.4-.5c.1,0,.3-.3.3-.5h.1a.9.9,0,0,0,.3-.5.6.6,0,0,0-.1-.4h0a1.1,1.1,0,0,0,.2-.4,1.8,1.8,0,0,0,.1-.6h0a1.6,1.6,0,0,0,0-.7,1.9,1.9,0,0,1-.2-.7v-.2c0-.1.1-.2,0-.4l-.3-.3h0c0-.1.1-.2,0-.3v-.2h0V150h0c.1,0,.1-.1.1-.4v-1.1h-.2c.1,0,.2.2.4.1v-.3c.2-.2.4-.6.6-.7s.9-.1.9,0h-.1c.1.1.4.5.7.3a.4.4,0,0,0,.2-.3h0l.2-.2a.4.4,0,0,0,.1-.3h0a.6.6,0,0,0,.1-.4,3,3,0,0,0-.2-1l-.4-.2h.1a1.1,1.1,0,0,0,0-.6.8.8,0,0,1-.2-.4v-.4h0a1,1,0,0,0-.6-.5h-.3l-.2-.2h0s-.4-.7-.9-.7h.1a1.2,1.2,0,0,0-1.1,0l-.7.4c-.3.2-.5.4-.7.4h-.1c-.6.2-1.1.3-1.3.6l-.3.2c-.1.1-.2.1-.2.3s-.2.2-.2.2h.1a.8.8,0,0,0,.2-.7V144a.3.3,0,0,0,0-.4l-.2-.3c-.1-.1-.1-.2-.1-.4s.2-1-.4-1.4a.8.8,0,0,0-.6-.2h-.3V141h0c0-.1,0-.2-.1-.2h-1.7c-.1,0-.3-.3-.6-.2a.4.4,0,0,0-.3.2h.1l-.2-.2h-.3l-.4.2h-.1a.6.6,0,0,0-.5.2,1.1,1.1,0,0,0-.3.7h0c-.1.2-.3.4-.2.6v.2c.1.1.1.1,0,.2h0c-.2.1-.2.2-.2.5h-.3c0-.1.1-.1.1-.2h-.3c-.4,0-.5-.1-.5-.2a.7.7,0,0,0-.7-.2h-.2s-.2-.8-.9-.8-1.4,1.6-1.4,1.6h0l-.8.3h-.1a4.5,4.5,0,0,1-.6,1.2,2.6,2.6,0,0,0-.8,1.3c0,.3.4.5.4.5h-.1c.1.1.2.6.6.6h-.1c0,.1.1.3.3.2h.3a.2.2,0,0,0-.2.2,1.9,1.9,0,0,0,.3.8h.2c.1.2.2.3.4.3s.4-.1.7-.3l.5-.3h0c.2.1.2.2-.1.6a.8.8,0,0,0-.1.8v.3l-.2.2a.8.8,0,0,0-.2.5,2.2,2.2,0,0,0,.1.6v-.2a.4.4,0,0,0-.2.3.4.4,0,0,0,.2.5h0v.2h0s-.3.4-.1.7h0a.9.9,0,0,0,0,1c.1.1.1.2.1.4a.5.5,0,0,0,.3.5,2.1,2.1,0,0,1,.6.8h0a9,9,0,0,0,.4,2.8,6.9,6.9,0,0,1-.2,3.3h-.5l-.6.3a1.8,1.8,0,0,0-.1.5h.1a.8.8,0,0,0-.7.6c-.1.5.2.6.2.6v-.2a1.1,1.1,0,0,0-1.1.7c-.1.7-.2,1.7-.2,1.8h.1c-.1,0-.6.4-.4.8a.5.5,0,0,0,.5.3h-.1a6.4,6.4,0,0,0,.3,2.2c.3.4,1.1.4,1.1.4h.2a.7.7,0,0,0,.4.8h1.3a1,1,0,0,0,.2,1.4h.2a.8.8,0,0,1-.2-1.2h-1.5c-.3-.1-.2-.6-.2-.6h-.4a1.7,1.7,0,0,1-1-.3,7.1,7.1,0,0,1-.2-2.1v-.2h-.2l-.2-.2c-.1-.2.3-.5.3-.5h0s.1-1.1.2-1.8.9-.5.9-.5v-.2s-.1-.1,0-.4a.6.6,0,0,1,.5-.4h.1a1,1,0,0,1,.1-.4c0-.1.2-.1.4-.2l.6-.2a5.7,5.7,0,0,0,.2-3.5,10.7,10.7,0,0,1-.3-2.7,1.7,1.7,0,0,0-.7-.9c-.2-.2-.2-.3-.2-.4a.9.9,0,0,0-.1-.5c-.3-.3,0-.7,0-.7h0c-.2-.2,0-.5,0-.5h0v-.2h0c-.1-.1-.2-.2-.1-.3v-.2h0v-.4c0-.2.1-.2.2-.3s.2-.2.2-.4v-.3a.9.9,0,0,1,0-.7c.3-.3.5-.6.2-.9s-.5.1-.9.3-.4.4-.5.3l-.3-.2c0-.1-.1-.1-.1-.2a.6.6,0,0,1-.3-.6h.2c-.1-.3-.3-.2-.4-.2a.1.1,0,0,0-.1.1v-.2H239c-.2,0-.3-.3-.4-.4h0c-.1,0-.2-.2-.2-.3a2.3,2.3,0,0,1,.6-1.2,3.1,3.1,0,0,0,.7-1.2h-.1l.9-.3h0c.2-.4.8-1.5,1.3-1.5s.7.7.7.7h.1a.2.2,0,0,0,.3,0l.5.2c.1.2.3.3.7.3h.1c-.1.1-.1.1-.1.2h.7v-.2c0-.2,0-.3.1-.4h.1c.1-.2,0-.3-.1-.4h0c-.1-.1,0-.3.1-.5l.2-.2a.8.8,0,0,1,.2-.6h.4l.5-.3a.1.1,0,0,0,.1-.1h.1a.1.1,0,0,0,.1.1h.1l.3-.2.3.2h1.3c.1.1.3,0,.5-.2h0v.2l.4.2a.7.7,0,0,1,.6.2c.4.2.4.7.3,1.1a.6.6,0,0,0,.2.6v.3c.1.1.1.1,0,.3v.4a.5.5,0,0,1-.1.5h.1l.2-.3.2-.2a.5.5,0,0,0,.4-.3c.1-.2.8-.4,1.2-.5h0l.8-.4a1.8,1.8,0,0,1,.7-.5,1,1,0,0,1,.9.1h0c.3,0,.6.5.7.6h.3l.3.2a.7.7,0,0,1,.5.4h0v.2a.4.4,0,0,0,.1.3.5.5,0,0,1,.2.4.8.8,0,0,1,0,.5h.3a2.4,2.4,0,0,1,.2.9v.2h-.1l-.3.2h0v.2a.5.5,0,0,1-.4-.3h-.1a1.6,1.6,0,0,0-1,0c-.3.1-.5.6-.6.8v.2h-.3v1.7h-.1v.3h.1l.3.3v.5a2.4,2.4,0,0,0,.2.8c.1.1,0,.4,0,.6h0a2.1,2.1,0,0,1-.1.6l-.2.3h0a.4.4,0,0,1,.1.3c0,.1-.1.2-.2.3l-.2.4-.2.3-.5.5c0,.2-.3.4-.4.5h0s0,1.4-.1,2.3a6.6,6.6,0,0,0-.2,2.3,3.7,3.7,0,0,1,.1.8h0l.4.3h.5c.1,0,.3.3.3.4h0l.4.5h.1a1.3,1.3,0,0,1-.1.5h.1l.8.3h-.1a11,11,0,0,1,.1,2.2h.3v.9h-.3v2h-.1a2,2,0,0,1-1.3.2h-.1a1.8,1.8,0,0,1-.1.6h0l-1.6.2h-.2l.2.2c.4.4-.1,1-.1,1.1h0" transform="translate(-208.5 -140.5)"/><path class="a" d="M241.5,144.6s-.2-.1,0-.3.1-.4-.1-.5-.5-.3-.3-.5.4.1.5-.1.1-.5.3-.4h.1a.3.3,0,0,0-.3.3c0,.2-.1.2-.1.2a.1.1,0,0,1,0,.2c-.1,0-.1-.2-.1-.2s-.1.2-.2.1-.2.2.2.3.3.3.1.5v.3" transform="translate(-208.5 -140.5)"/><path class="a" d="M242.1,142.4l.2.4v.2s0-.2-.1-.2,0,.3.2.5.2.3.1.5a.5.5,0,0,0-.1.3s-.1-.1,0-.3-.3.3-.1.5a.2.2,0,0,0,.3.1s-.4,0-.5-.2a1,1,0,0,1,.1-.4.5.5,0,0,0-.2.5c.1.3.7.2.7.6s-.1.5-.1.5-.1-.3-.2-.1,0,.5,0,.5l-.2-.4c.1-.2-.1-.4-.1-.4a.4.4,0,0,1-.1.4c-.2.2-.3.4-.1.5a.1.1,0,0,1,0-.2l.2-.3s-.2.1,0,.3.4.3.3.6a.3.3,0,0,0-.1-.2.5.5,0,0,1-.1.5.4.4,0,0,0,.2.6c.2.1.1.5,0,.6s.3,0,.2.3l-.5.5c-.1.3.2.4,0,.5h.2c.2-.1,0-.6.3-.8s.3-.4.2-.4.3-.3.2-.5a1.5,1.5,0,0,1-.1-.9h.1s.2-.2.4-.1-.1-.2-.2-.3-.3-.4,0-.5.5-.1.6-.4h-.4s.1.2.3,0h-.2l-.2-.3a.4.4,0,0,0,.3.2l-.2-.2.3-.2h-.4a.5.5,0,0,1-.4-.2.4.4,0,0,0-.1-.3l.2.2a.3.3,0,0,0,.5.2s-.3.1-.3-.2.3,0,.4-.2h-.3c-.1-.1,0-.5.1-.5h.2a.7.7,0,0,0-.5-.3h-.4s-.3-.8-.7-.8" transform="translate(-208.5 -140.5)"/><path class="a" d="M244,143.6h-.4s.5,0,.4.1h.3" transform="translate(-208.5 -140.5)"/><path class="a" d="M244.3,143.8a.4.4,0,0,1,.2.3.4.4,0,0,0,.4.4.4.4,0,0,1-.2-.3.3.3,0,0,0-.2-.4" transform="translate(-208.5 -140.5)"/><path class="a" d="M243.6,144.1a.3.3,0,0,1,.4.2c0,.3.5,0,.6.4a.4.4,0,0,0-.2-.3c-.2-.1-.3,0-.3-.2s0,.2.2.1-.1,0-.2-.2h-.5" transform="translate(-208.5 -140.5)"/><path class="a" d="M243.8,144.7s.5,0,.6.4a.4.4,0,0,0,.5.3s-.3.1-.3-.2-.2-.7-.8-.5" transform="translate(-208.5 -140.5)"/><path class="a" d="M243,145.6s0,.3.4.3.3-.3.3-.3a.4.4,0,0,1-.1.4c-.1.1-.7.1-.8-.3" transform="translate(-208.5 -140.5)"/><path class="a" d="M243.8,145.3a.4.4,0,0,1,.5.3c0,.5.4.7.9.4s-.4.3-.6-.3-.5-.5-.8-.4" transform="translate(-208.5 -140.5)"/><path class="a" d="M247.1,145.2a.4.4,0,0,1-.6-.2h.3a.3.3,0,0,1,.4.2" transform="translate(-208.5 -140.5)"/><path class="a" d="M247.4,145.7a1.4,1.4,0,0,1-1,.6.9.9,0,0,1-.8-.4,1.5,1.5,0,0,0,.8.5h0l.2.2c.1,0,.3-.4.3-.3l.4.2v.4s0-.6.1-.6h.6s-.6-.2-.6-.6" transform="translate(-208.5 -140.5)"/><path class="a" d="M248.5,146.3s-.2.7-.7.8a1.1,1.1,0,0,1-1-.2,1.2,1.2,0,0,0,1,.1h.1c.5-.1.3-.8.3-.8" transform="translate(-208.5 -140.5)"/><path class="a" d="M246.5,147.5s.2.4.5.3.5-.2.8-.1.8.1.9-.5.1.5-.3.6-.6-.1-1.1,0-.7.1-.8-.3" transform="translate(-208.5 -140.5)"/><path class="a" d="M246.6,146.9a.4.4,0,0,0-.4.4c0,.4-.3.3-.3.3s.2,0,.2-.3.3-.5.5-.4" transform="translate(-208.5 -140.5)"/><path class="a" d="M245.9,147.1s.1.3-.1.3.4,0,.1-.3" transform="translate(-208.5 -140.5)"/><path class="a" d="M247.2,145.2a.6.6,0,0,1-.7.2.6.6,0,0,0,.8-.1h-.1" transform="translate(-208.5 -140.5)"/><path class="a" d="M247.3,145.4a1.1,1.1,0,0,1-1.4.2s.2.3.8.2.6-.4.6-.4" transform="translate(-208.5 -140.5)"/><path class="a" d="M247.4,145.5a1.2,1.2,0,0,1-1,.5.9.9,0,0,1-.8-.4,1.1,1.1,0,0,0,.9.5.8.8,0,0,0,.9-.6" transform="translate(-208.5 -140.5)"/><path class="a" d="M247.5,142s-.2-.6-.9,0-1.1,1.1-1.6.9.2.4.9-.1,1.1-1.4,1.6-.8" transform="translate(-208.5 -140.5)"/><path class="a" d="M245.1,142.2s0,.3.4.2a1.5,1.5,0,0,0,.7-.5s-.3.7-.7.7a.6.6,0,0,1-.6-.2" transform="translate(-208.5 -140.5)"/><path class="a" d="M254.4,142.8s-.3,0-.4.4.1.6-.2.7a.3.3,0,0,0,.3-.3s.2.2-.1.5-.5.3-.4.7-.1-.2.3-.4.4-.4.4-.4a1,1,0,0,1-.2.6c-.2.2-.6.3-.6.8a.7.7,0,0,1,.5-.6.8.8,0,0,0-.2.5s0-.2.3-.3.2-.4.2-.4a.5.5,0,0,1-.2.7.8.8,0,0,0-.5.9.7.7,0,0,1,.6-.7,1.1,1.1,0,0,0-.4.9c.2.5.2.8-.4,1.1s-.7.6-.6,1.1a.6.6,0,0,1-.5.6.3.3,0,0,0,.2-.5,1,1,0,0,1,.5-1.1.5.5,0,0,0-.5.5s-.2-.5.5-.8.7-.5.6-.8a.5.5,0,0,1,0-.4.4.4,0,0,0-.2.4c0,.3-.5.4-.5.4s.4-.1.4-.4a.5.5,0,0,1,.1-.5,1.4,1.4,0,0,0-.3.5c0,.3-.4.2-.6.5a.7.7,0,0,0-.1.6.6.6,0,0,1,.2-.8c.5-.4.4-.7.4-.7s.1.1-.2.2-.5.1-.5.5-.5.5-.5.5.3-.2.3-.4a.9.9,0,0,1,.4-.8s-.5.2-.5.6-.2.5-.5.7a.6.6,0,0,0-.2.6.7.7,0,0,1,.2-.9.7.7,0,0,0,.4-.8c-.1-.3.2-.7.7-.8s.5-.5.5-.5.1.4-.5.4a.8.8,0,0,0-.7.4,1,1,0,0,1,.6-.7c.6-.1.5-.5.5-.5s.1.4-.6.5-.9.4-.9,1a.6.6,0,0,1-.5.7s.5-.2.4-.6a1,1,0,0,1,.6-1.3.9.9,0,0,0-.7,1c.1.9-.5,1-.5,1a.9.9,0,0,0,.3-.9,1.4,1.4,0,0,1,.3-1.6,2.1,2.1,0,0,1,.8-.6,2.4,2.4,0,0,0,1.1-.3l.9-.7" transform="translate(-208.5 -140.5)"/><path class="a" d="M250.2,143.9a.4.4,0,0,1,.2.6c-.1.4-.1.5.3.7a.5.5,0,0,1,.1.8c-.2.3.2.4.2.4s-.3,0-.1-.4a1.1,1.1,0,0,0,0-1.1l-.2-.3a.8.8,0,0,0-.5-.7" transform="translate(-208.5 -140.5)"/><path class="a" d="M250.1,144.7a.8.8,0,0,0,.4.8c.5.3.2.4.2.7s.4.3.3.6-.3.2.1.5,0,.6,0,.6.2-.2-.1-.3-.6-.5-.3-.8-.4-.4-.2-.8.1-.5-.2-.6-.3-.3-.2-.7" transform="translate(-208.5 -140.5)"/><path class="a" d="M248.1,143.4a.2.2,0,0,1,.1.3v1.2s.1-.5.4-.5a1,1,0,0,0,.6-.3s-.6.1-.8-.2.1-.6.1-.6h0s-.2.2-.4.1" transform="translate(-208.5 -140.5)"/><path class="a" d="M248.5,143.7s.1-.4.4-.4.5.4.5.4-.5-.8-.9,0" transform="translate(-208.5 -140.5)"/><path class="a" d="M248.6,143.8a.5.5,0,0,0,.8,0,.7.7,0,0,1-.8,0" transform="translate(-208.5 -140.5)"/><path class="a" d="M247.7,142s.2-.3.9,0,1.3.6,1.3,1.1-.2.5.4.9a.8.8,0,0,1,.4.8,1,1,0,0,0-.1-.9c-.4-.3-.7-.3-.6-.8s-1-1-1.5-1.2-.8-.1-.8.1" transform="translate(-208.5 -140.5)"/><path class="a" d="M249.2,141.1s-.3.4.4.8,1,.5.9.9.3-.4-.4-.8-.9-.4-.8-.8" transform="translate(-208.5 -140.5)"/><path class="a" d="M249.2,142.3a.3.3,0,0,1,.3-.3s-.5,0,0,.5" transform="translate(-208.5 -140.5)"/><path class="a" d="M249.7,142.6s.7-.2.7.5.5.7.5.7a.5.5,0,0,1-.7-.4c-.1-.7-.4-.7-.4-.7" transform="translate(-208.5 -140.5)"/><path class="a" d="M247.2,141.1a.4.4,0,0,1,.2.4c.1.3,0,.4,0,.4a.4.4,0,0,0,.1-.6" transform="translate(-208.5 -140.5)"/><path class="a" d="M247.1,144.8s0,.2.2.1h.7a.4.4,0,0,0-.4.1c-.2.1-.5.1-.5-.2" transform="translate(-208.5 -140.5)"/><path class="a" d="M247.5,145.2s.4-.3.5-.2,0,.2-.1.2h-.4" transform="translate(-208.5 -140.5)"/><path class="a" d="M248.8,144.7a.7.7,0,0,1-.3.7,1.1,1.1,0,0,1-1-.1,1.1,1.1,0,0,0,1,.2.8.8,0,0,0,.3-.8" transform="translate(-208.5 -140.5)"/><path class="a" d="M249,145.2s.1.4-.5.5a1.2,1.2,0,0,1-1-.3,1.3,1.3,0,0,0,1,.4c.4-.1.6-.4.5-.6" transform="translate(-208.5 -140.5)"/><path class="a" d="M249.1,145.4a.6.6,0,0,1-.5.7,1.2,1.2,0,0,1-.9-.4s.4.6.9.5.7-.6.5-.8" transform="translate(-208.5 -140.5)"/><path class="a" d="M249.8,143.7a1,1,0,0,1-.1.9c-.3.3-.7.2-.5.7a.8.8,0,0,1-.8,1,.9.9,0,0,0,.9-.4c.3-.5-.2-.7.2-1.1s.5-.7.3-1.1" transform="translate(-208.5 -140.5)"/><path class="a" d="M250.2,143.9s.2.1.1.4a.7.7,0,0,1-.3.5s.7-.2.5-.8" transform="translate(-208.5 -140.5)"/><path class="a" d="M249.9,145.1a.9.9,0,0,1-.3.6c-.2.3-.7.7-.8,1.2a1.5,1.5,0,0,1-.2,1,.7.7,0,0,1-.6.1.7.7,0,0,0,.9-.3c.2-.6,0-1,.5-1.6s.5-.8.5-1" transform="translate(-208.5 -140.5)"/><path class="a" d="M245.5,144a.7.7,0,0,0,.6.4l.5-.2s-.1.5-.1.6.1.2.1.2-.2.1-.2-.2v-.5s-.8.4-.9-.3" transform="translate(-208.5 -140.5)"/><path class="a" d="M239.2,147.8a.3.3,0,0,1,.1-.2,1.3,1.3,0,0,0,.4-.7c.1-.3.2-.5.3-.2s.1.3.3.4.2.2,0,.3a.8.8,0,0,1-.4.3h-.1a.5.5,0,0,1-.1.3h-.2s.1-.2,0-.2" transform="translate(-208.5 -140.5)"/><path class="a" d="M240.6,147.2h0c.1.1.2.3,0,.4l-.5.3h0s-.2-.2.3-.2.6-.3.3-.6" transform="translate(-208.5 -140.5)"/><path class="a" d="M241.2,147.8a2.5,2.5,0,0,0-.4.6c-.2.4-.5.8-.6.7H240s.3.3.5.2.9-.7,1-.6h.1a.5.5,0,0,0-.1-.3.9.9,0,0,1-.3-.6" transform="translate(-208.5 -140.5)"/><path class="a" d="M238.3,146.8s.1.2.2.1h.3l-.2.4" transform="translate(-208.5 -140.5)"/><path class="a" d="M239.6,144.8v.3h.1a.3.3,0,0,1-.2-.4" transform="translate(-208.5 -140.5)"/><path class="a" d="M239.8,145.2a.1.1,0,0,0-.1.1h-.2V145h0l.2.2" transform="translate(-208.5 -140.5)"/><path class="a" d="M240.3,144h.4l.6.5s-.7-.6-.6-1" transform="translate(-208.5 -140.5)"/><path class="a" d="M241.9,144.1a.4.4,0,0,0,.1.4c.3.3.5.3.6.6a.5.5,0,0,1-.1.5s.4-.5.1-.8-.7-.4-.7-.7" transform="translate(-208.5 -140.5)"/><path class="a" d="M241.2,144.6a.7.7,0,0,1,.3.4c0,.4-.1.5-.1.5a.5.5,0,0,0,.2-.5.4.4,0,0,0-.4-.4" transform="translate(-208.5 -140.5)"/><path class="a" d="M240.6,145a.5.5,0,0,1,.4.6c0,.5-.2.6.2,1a1.7,1.7,0,0,1,.4,1.4,1.6,1.6,0,0,0-.1-.9c-.2-.6-.6-.7-.5-1.2s0-1-.4-.9" transform="translate(-208.5 -140.5)"/><path class="a" d="M239.1,147.8s-.1-.1,0-.4a1.3,1.3,0,0,1,.2-.6s-.5.4-.3.8" transform="translate(-208.5 -140.5)"/><path class="a" d="M242.1,147.8l-.2.2v.3a1.7,1.7,0,0,1,.2-.5" transform="translate(-208.5 -140.5)"/><path class="a" d="M242.3,147.9s-.2,0-.3.5,0,.6-.2.8h-.2s.3.2.4-.3,0-.8.3-1.1" transform="translate(-208.5 -140.5)"/><path class="a" d="M247.5,142.2a.1.1,0,0,0-.1.1v.2h0" transform="translate(-208.5 -140.5)"/><path class="a" d="M249,147a3.5,3.5,0,0,1,.1.7,1.4,1.4,0,0,1-.3.5,1.1,1.1,0,0,0,.4-.6,4.1,4.1,0,0,0-.1-.9,2.2,2.2,0,0,1,.3.9,1.9,1.9,0,0,1-.4.6,1,1,0,0,0,.5-.7,3.1,3.1,0,0,0-.2-1,2.6,2.6,0,0,1,.4.9,1,1,0,0,1-.3.6,1,1,0,0,0,.4-.7,7.8,7.8,0,0,0-.3-1.4,3.2,3.2,0,0,0-.6.8" transform="translate(-208.5 -140.5)"/><path class="a" d="M249.8,145.6s-.4.6,0,.9.3.7.1,1.3a.8.8,0,0,0,.4.8s-.4-.2-.2-.9a1.3,1.3,0,0,0,0-1.1,1,1,0,0,1,.2,1.2c-.2.7.3.9.7,1.1a.8.8,0,0,1-.5-1.1,1.3,1.3,0,0,0-.5-1.5,1.1,1.1,0,0,1-.2-.9" transform="translate(-208.5 -140.5)"/><path class="a" d="M250,145.1s-.3.2.1.6.5.5.3.8.2-.1-.2-.5-.4-.6-.2-.9" transform="translate(-208.5 -140.5)"/><path class="a" d="M252.1,145.4a.9.9,0,0,0-.4.8.8.8,0,0,1-.7,1l.2.3a.9.9,0,0,0,.6-1,1.1,1.1,0,0,1,.6-1.2" transform="translate(-208.5 -140.5)"/><path class="a" d="M256.5,143.9s-.2-.3-.7.2-.1.6.4.7-.7-.2-1,.1l-.4.3.5-.5c.3-.2.3-.9.6-1.2" transform="translate(-208.5 -140.5)"/><path class="a" d="M257.3,145.4h-.5l.2.2a.3.3,0,0,0,.1.2s0-.4.2-.5" transform="translate(-208.5 -140.5)"/><path class="a" d="M257.8,147.4s.1-.1-.1-.4a1.1,1.1,0,0,0-.4-.5s.6.5.6.7-.2.3-.2.3" transform="translate(-208.5 -140.5)"/><path class="a" d="M256.9,147.4v-.5h-.5l-.2-.3h.2c0-.1-.4-.2-.7.2a2.9,2.9,0,0,0-.3.9s.4-.2.3,0a1,1,0,0,1,1-.3" transform="translate(-208.5 -140.5)"/><path class="a" d="M256.5,145.1s.2.1.2.2" transform="translate(-208.5 -140.5)"/><path class="a" d="M255.4,148.1l-.2.2a10.4,10.4,0,0,1-.3-1.2c-.1-.2-.7-.2-.7-.2s.3,0,.4.5-.4.6-.4,1.1.3.3,0,1.1-.7.7-.7.7a1.7,1.7,0,0,0,.8-.8,1.5,1.5,0,0,0,.2-1,.9.9,0,0,1,0,.8,1.5,1.5,0,0,1-.5.9,2.4,2.4,0,0,0,.7-1,1.4,1.4,0,0,0,0-1,2.7,2.7,0,0,1-.1,1.5,2.3,2.3,0,0,1-1.4,1.1,1.9,1.9,0,0,0,1.1-.4,1.1,1.1,0,0,0,.5-.8,2.2,2.2,0,0,1-.5,1.1,1.6,1.6,0,0,1-.9.4,1.5,1.5,0,0,0,1.4-.8l.2-.6v-1.4l.3.2v-.2" transform="translate(-208.5 -140.5)"/><path class="a" d="M249.7,147.1a1.5,1.5,0,0,1,0,1c-.3.5-.2,1.2.6,1.8s.3,1,.3,1,.5-.4-.1-1.1-1-1.2-.7-1.9a1.4,1.4,0,0,0-.2-1.6" transform="translate(-208.5 -140.5)"/><path class="a" d="M250.6,147.1s-.3.3.2.8a1.1,1.1,0,0,1,.3,1.4,1,1,0,0,0,.4,1.1.9.9,0,0,1-.2-1,1.2,1.2,0,0,0-.3-1.4,1.2,1.2,0,0,1,.6,1.3.8.8,0,0,0,.5,1s-.5-.2-.3-1a1.1,1.1,0,0,0-.1-1.2,1.3,1.3,0,0,1,.3,1.3c-.2.8.4,1,.4,1s-.5-.2-.2-1.1a1.4,1.4,0,0,0-.2-1.4.8.8,0,0,1,.4.7.7.7,0,0,0-.2-.8.6.6,0,0,1,0-.8.7.7,0,0,0-.3,1c.4.7.2,1,.2,1a1.7,1.7,0,0,0-.3-.9c-.3-.5-.1-.7-.1-.7a.7.7,0,0,0-.1.9.8.8,0,0,1,.1.8,1.7,1.7,0,0,0-.3-.9c-.3-.4-.6-.5-.6-1" transform="translate(-208.5 -140.5)"/><path class="a" d="M253.8,146.9a.8.8,0,0,1-.2.7c-.3.3-.8.6-.8,1.2a.7.7,0,0,1-.3.8,1.2,1.2,0,0,0,.4-.9c0-.6,1.4-1,1-1.9s.3.2.1.8-1.2.3-1.1,1.4-.1,1.3-.6,1.3a.9.9,0,0,0,.8-.5,4.3,4.3,0,0,0,.2-1.2,2.2,2.2,0,0,1-.2,1.5,1.7,1.7,0,0,1-1.1.6s1.2.1,1.6-.7-.1-1,.3-1.8a1.2,1.2,0,0,0-.1-1.7l-.5-.5" transform="translate(-208.5 -140.5)"/><path class="a" d="M254.8,147s-.3-.1-.3-.7a2.5,2.5,0,0,1,.4-.9,1.4,1.4,0,0,0-.6.8c-.1.5.6.9.6.9" transform="translate(-208.5 -140.5)"/><path class="a" d="M254.3,142.9a.5.5,0,0,1,.5.1c.3.3,0,.4,0,.4s.6-.3.2-.6a1,1,0,0,0-1.2.4" transform="translate(-208.5 -140.5)"/><path class="a" d="M245.2,145.5h0l-.4.3" transform="translate(-208.5 -140.5)"/><path class="a" d="M244.9,144.7a.5.5,0,0,1-.1.3h-.2s.1.2.2.1.1-.4.1-.4" transform="translate(-208.5 -140.5)"/><path class="a" d="M244.9,144.4v-.2s-.2,0-.1.2" transform="translate(-208.5 -140.5)"/><path class="a" d="M244.7,144.7h-.1a.1.1,0,0,0,.1-.1" transform="translate(-208.5 -140.5)"/><path class="a" d="M243.7,146.1s.2.1.2.2a.1.1,0,0,1,0,.2v-.2a.4.4,0,0,0-.3-.2" transform="translate(-208.5 -140.5)"/><path class="a" d="M243.9,146l.2.2s-.1-.3-.2-.2" transform="translate(-208.5 -140.5)"/><path class="a" d="M244.3,146h0l.3.2c.3,0,.3-.1.3-.1a.6.6,0,0,1-.6-.2" transform="translate(-208.5 -140.5)"/><path class="a" d="M245.1,146.1s-.3-.1,0,.4a.8.8,0,0,1,.2.7.4.4,0,0,1-.3.2s.5-.2.1-.5-.4-.9,0-.8" transform="translate(-208.5 -140.5)"/><path class="a" d="M245.9,146.7a.8.8,0,0,0-.4.3,1,1,0,0,0,.1.4s-.3-.3-.2-.5.4-.4.5-.2" transform="translate(-208.5 -140.5)"/><path class="a" d="M244.8,146.5s-.2.1,0,.2l.3.3s-.6-.3-.5-.4.2-.1.2-.1" transform="translate(-208.5 -140.5)"/><path class="a" d="M244,146.3s.2-.1.1.1-.2.3-.2.3a.4.4,0,0,0,.3-.2c.1-.2-.2-.4-.3-.3" transform="translate(-208.5 -140.5)"/><path class="a" d="M244.2,146.8s-.1.2.2.2.5.2.5.5.3.3.3.3a.3.3,0,0,1-.3-.3c0-.3,0-.4-.2-.5s-.5-.2-.5-.4" transform="translate(-208.5 -140.5)"/><path class="a" d="M243.7,146.9s-.1.3.3.4a1.6,1.6,0,0,1,.6.5c.1.2.5.1.5.1s-.4.1-.5-.2-.9-.5-.9-.8" transform="translate(-208.5 -140.5)"/><path class="a" d="M243.6,146.5l-.3.2H243a.5.5,0,0,0,.5.1.2.2,0,0,0,.1-.3" transform="translate(-208.5 -140.5)"/><path class="a" d="M246.2,147.9a.2.2,0,0,1,.2.3.4.4,0,0,0,.3.5.2.2,0,0,1-.2-.3.6.6,0,0,0-.1-.6s.4.1.3.4a.5.5,0,0,0,.3.6.4.4,0,0,1-.2-.4.7.7,0,0,0-.2-.7c-.2-.1-.2-.4-.2-.4s-.3.3-.1.5" transform="translate(-208.5 -140.5)"/><path class="a" d="M251.2,155.4a9.2,9.2,0,0,1-.4,3.6,5.3,5.3,0,0,0-.1,3.1v.6c0,.1,0-.5.1-.5s.7,1,.6,1.2-.1.2-.1.2h1.9a5.1,5.1,0,0,0-.5-1.2,7.9,7.9,0,0,1-.4-.9,22.6,22.6,0,0,1-.1-3.7,8,8,0,0,0-.2-2.6,3.3,3.3,0,0,1-.5-2.1c0-.7-.4,1-.4,2.3" transform="translate(-208.5 -140.5)"/><path class="a" d="M247.1,155.1a.3.3,0,0,0-.3.3.7.7,0,0,1-.3.4,5.2,5.2,0,0,1,.2,2.5,9.1,9.1,0,0,0-.4,2.5c0,.7.3,1.1.2,1.2s-.2-1-.3-.7,0,.8,0,1.1a1,1,0,0,1-.1.4s.2.5.1.7H249s-.9-.2-1-.4.3-.3.2-.4v-.5c.1-.1.1-.2-.1-.5a4.5,4.5,0,0,1-.3-2.5c.3-1,.8-3,.6-3.4l-.4-.9s.3.8-.1,1-.7-1-.7-1" transform="translate(-208.5 -140.5)"/><path class="a" d="M244.2,155.6a8.7,8.7,0,0,0,.4,2.3c.5,1.4.3,1.6.1,2s.1,1.4-.1,1.7a3,3,0,0,1-.7.8s.2-.6,0-.7,0-.4,0-.9.3-5.2.3-5.2" transform="translate(-208.5 -140.5)"/><path class="a" d="M241.3,162.9l-.2.2v.2s-.3-.4-.4-.3.2-.5.6-.1" transform="translate(-208.5 -140.5)"/><path class="a" d="M241.5,162.7h.4c0,.1,0,.4.1.5a.4.4,0,0,1-.1.3h-.5a.2.2,0,0,0,.2-.2c0-.2-.2-.5-.3-.5h-.2s.2-.3.4-.3" transform="translate(-208.5 -140.5)"/><path class="a" d="M241.2,162.3h.3s.2-.2.3-.1h0v.3h.4a.4.4,0,0,1,.1.3c-.1.1-.3.4-.1.5h.5l.6.2h.2v-.7l.4-.6c0-.1.1,0,0-.1l-.2-.2v0H243l-.5.2v-.2h.2c.2-.1,0-.2,0-.2l-.8.2" transform="translate(-208.5 -140.5)"/><path class="a" d="M244.9,161.9h-.2l-.2.2s.3.2.3.4l-.4.3h-.3l-.2.2s0-.4-.1-.3l-.3.3s.8-.2.9-.1,0,.7,0,.7h.2v-.7c.1-.1,0-.8.4-.7s.3.4.2.5-.5,0-.4.1.2.2.3.2.1.1.1.4,0,.3-.1.3h.8c.1,0-.4.1-.4-.2v-.9c0-.1-.1-.4,0-.4h.2l-.2-.4s-.1.2-.2.2h-.1Z" transform="translate(-208.5 -140.5)"/><path class="a" d="M246.2,163.5s-.1-.4-.2-.2a.5.5,0,0,0-.1.3" transform="translate(-208.5 -140.5)"/><path class="a" d="M243.6,163.5H247" transform="translate(-208.5 -140.5)"/><path class="a" d="M240.7,164.2s-.3.1-.3,0V164h-.1c0,.2-.2,1.9-.2,2s-.3.1-.3-.1a12.4,12.4,0,0,1,.2-1.8c.1-.1.4-.2.5-.1" transform="translate(-208.5 -140.5)"/><path class="a" d="M241.2,164.8c-.1.1.1.2.2.2v-.6h-.2" transform="translate(-208.5 -140.5)"/><path class="a" d="M241,164.9s-.1-.5-.2-.5h-.1s.3.4.2.4h.1" transform="translate(-208.5 -140.5)"/><path class="a" d="M241.7,164.8a1.1,1.1,0,0,1-.5.5l-.4.2.3.2s-.1.1,0,.1h.4v-.2h-.1s.4-.3.2-.6" transform="translate(-208.5 -140.5)"/><path class="a" d="M241.8,165.4s.4,0,.4.3a.5.5,0,0,1-.2.4l-.3.2c0,.1.1.2,0,.2h-.3c-.1.1-.2.2-.1.3s.2.3.1.4,0,.1.1.2a.4.4,0,0,0,.1.3l.2.2h.6c0-.1.3,0,.1-.2l-.2-.3c.1-.1.2-.4.3-.4h.4c.1.1.1.4.1.6s.2.3.4.3a.5.5,0,0,1,.3.4c0,.1-.2.1-.1.2a.7.7,0,0,1,.3.4.6.6,0,0,1-.1.4h.5a1,1,0,0,0-.1-.4s0-.4-.1-.5a.3.3,0,0,1-.1-.2c0-.1,0-.2-.1-.2s.1.1,0-.1a.3.3,0,0,1-.1-.2h0v-.2c0-.1-.1-.7-.2-.7h-.1s.3.1.4.7a2.7,2.7,0,0,0,.5,1.2c.2.2,0,.4.1.5a.2.2,0,0,0,.2-.2,7.4,7.4,0,0,1-.6-1.1,4.6,4.6,0,0,1-.1-1l-.2-.2-.6-.2h-.4l-.6-.2c0-.1.2-.5.1-.6s-.4-.1-.6-.1" transform="translate(-208.5 -140.5)"/><path class="a" d="M241.2,167.4v.5c.1.3,0,.4.1.5a.7.7,0,0,1,.3.5h.1s-.2-.7-.1-.8l.3-.3h0l-.4.3a.2.2,0,0,1-.1-.3h0s0-.3-.2-.3" transform="translate(-208.5 -140.5)"/><path class="a" d="M247.4,163.8a4.3,4.3,0,0,1,2,1.1,2.6,2.6,0,0,1,.5,1.7s.2-.5.3-.2a4.3,4.3,0,0,1-.6,2.2l-.8.8h1.4c.3-.1-.1-.1-.4-.2s-.1-.6,0-.7.1.2.2-.2a6.3,6.3,0,0,0,.3-2.3c-.1-.2.2-.4.1-.6s-.6-.4-.5-.7,1.4-.2,1.8-.3h-7.5l-.6.2H246" transform="translate(-208.5 -140.5)"/><path class="a" d="M251.9,164.5a1,1,0,0,0-.8,0,.7.7,0,0,0-.4.3l-.3.4v.6c0,.2.1.4.1.6a8,8,0,0,1-.5,2.1c-.1.2.2.5.5.6s.8-.2.9-.2-.6.2-.7-.1.4-1.3.4-1.7a4.9,4.9,0,0,0-.1-1.3h0v-.3h-.1s.2-.7.4-.8h.7" transform="translate(-208.5 -140.5)"/><path class="a" d="M251.6,165.3h0l.2.2-.3.6c-.1,0-.2,0-.2.3s.4.7.2,1.2l-.4,1.2h.2c.1-.1.4-1,.5-1.1s0,.3,0,.8-.1.6.1.8h.5a1.3,1.3,0,0,1,.1-.5v-1.1h-.4c-.1-.1-.2-.2,0-.3h.2v-.3l.2-.2h-.3c0-.1-.1-.1,0-.2h.1c-.1,0-.1.1-.1-.1s.2-.3.2-.4-.5-.7-.7-.5" transform="translate(-208.5 -140.5)"/><path class="a" d="M253.1,165.1a2.2,2.2,0,0,1,1.4.5c.4.4.5,1,.3,2l-.2,1.6H254a2,2,0,0,0,.2-.7c-.1-.2-.1-.5-.2-.6l-.3-.3h.6a2,2,0,0,0,.1-1.9,2.9,2.9,0,0,0-1.4-.5s.4,0,.4.2-.3.4-.4.5-.2.3-.2.3a2.6,2.6,0,0,0,0-.9l-.2-.3c-.1,0-.2-.3-.2-.3l.4.2" transform="translate(-208.5 -140.5)"/><path class="a" d="M253.7,165.5a2.7,2.7,0,0,1-.3.8,1.2,1.2,0,0,0-.2.8c0,.3-.2.5-.2.6s.1.5.1.6v.8h.9l-.3-.3s0-.5-.1-.6,0-.3,0-.3h.3v-.2a.5.5,0,0,0,.6-.5c0-.7-.3-1.6-.8-1.5" transform="translate(-208.5 -140.5)"/><path class="a" d="M255.8,164.2s.2.1-.2.1h-1.9l.2.2s.8-.4.9.1-.2,1.1-.1,1.2.2.4.2,1.4a6.3,6.3,0,0,1-.1,1.8c0,.1,0,.3.2.3s.6-.1.5.1v.2s.6,0,.5-.3.1-2.2.1-2.2v-2.7" transform="translate(-208.5 -140.5)"/><path class="a" d="M254.3,169.7s-.3.1-.4,0-.1-.4-.1-.4h-1.5a.4.4,0,0,0-.3.2h-.4a14.1,14.1,0,0,1-2-.1h-6.4l7.9.2,3-.2s.2.4.4.2" transform="translate(-208.5 -140.5)"/><path class="a" d="M242.9,170.4h.1c.3,0,7.4.3,8.5.2h1s1.1.3.7.9l-.4.5h-3.1s1.5,0,.7-.5-7.1-.7-7.6-.5-.1-.3,0-.4" transform="translate(-208.5 -140.5)"/><path class="a" d="M239.6,166.6s.3-.1.3.4,0,1.9.2,2,.3-.1.4,0h.5l-.5.2v.3s-1-.2-1-1v-1.9" transform="translate(-208.5 -140.5)"/><path class="a" d="M240.7,165.2l-.4.5.2.4v.2l.3-.4a.4.4,0,0,1,0-.7" transform="translate(-208.5 -140.5)"/><path class="a" d="M240.6,166.7s.5,0,.4.4-.2.6-.1.9l.3.9a5.3,5.3,0,0,1-.1-1.5c0-.4-.3-.8-.5-.7" transform="translate(-208.5 -140.5)"/><path class="a" d="M249.2,161.5s0,.4-.2.4h-.2s.3.1.3.3v.4s-.4-.2-.5-.1.5-.1.4.4-.4.5-.4.5.2.2.4.1.2-.9.2-.9v-.5a.7.7,0,0,0,0-.7" transform="translate(-208.5 -140.5)"/><path class="a" d="M249.6,161.5s-.1.3,0,.4.3.2.2.4-.4.2-.3.3a.9.9,0,0,1,.3.5c0,.2-.2.3-.2.4v.2h.7a.4.4,0,0,1-.2-.3c0-.2,0-.5-.1-.6a.5.5,0,0,1-.1-.3c0-.1-.1-.4,0-.4l.2-.2s.3.2.3.4-.6-.8-.8-.8" transform="translate(-208.5 -140.5)"/><path class="a" d="M250.6,162.5l.3.7h-.3s.2.3,0,.3h.6c.2-.1.1-.6-.1-.8s-.3,0-.5-.3" transform="translate(-208.5 -140.5)"/><path class="a" d="M253.4,162.2s.1-.3.4.1.4,1,.2,1.1a.4.4,0,0,1-.4.1h1.3s.1-.3-.1-.4h-.5s-.1-.9-.4-1.1-.6-.3-.5.1" transform="translate(-208.5 -140.5)"/><path class="a" d="M245.9,156.2s.3.2.1,1.3-.3,1.5,0,2.2a4.5,4.5,0,0,1,.3,1.3,4,4,0,0,0,.2-1.5c-.1-.4-.6-1.2-.4-1.9v-.8c0-.2.1-.6-.3-.6" transform="translate(-208.5 -140.5)"/><path class="a" d="M248.2,162.5a1.7,1.7,0,0,0,.3-.9,1.5,1.5,0,0,0-.1-.9,1.6,1.6,0,0,1-.1.9c-.2.3-.4.3-.4.3" transform="translate(-208.5 -140.5)"/><path class="a" d="M248.1,149.1s.4.2.3.4.4.5.3.7h-.2s.4.1.4-.1-.1-.5-.1-.5v-.3s-.6-.4-.7-.3" transform="translate(-208.5 -140.5)"/><path class="a" d="M248,150s.4.1.3.3.5.6.4.7a.4.4,0,0,1-.3.2h.5c.1-.2-.1-.5-.1-.5v-.3s-.7-.4-.8-.3" transform="translate(-208.5 -140.5)"/><path class="a" d="M248,150.9s.4.2.3.4.5.5.4.7h-.2s.3.1.4-.1-.1-.5-.1-.5v-.3s-.6-.4-.8-.3" transform="translate(-208.5 -140.5)"/><path class="a" d="M247.9,151.9s.4.2.3.4.4.5.4.7h-.3s.4.1.5-.1-.2-.5-.2-.5v-.3s-.6-.4-.7-.3" transform="translate(-208.5 -140.5)"/><path class="a" d="M247.8,152.8s.4.2.3.4.5.5.4.7h-.3s.4.1.5-.1-.2-.5-.2-.5v-.3s-.7-.4-.8-.3" transform="translate(-208.5 -140.5)"/><path class="a" d="M249.4,149.8s.3.4.2.6h-.4l.4.6-.4.2.3.2s-.3,0-.2.1.2.3.1.4h-.3a1.3,1.3,0,0,0,.1.5c.2.2.3.3.3.5l-.3.2s-.2.1,0,.3.5.4.4.5-.5.3-.4.4.5.3.3.5h-.3s.5-.1.4-.4-.2-.4,0-.4.2-.2.1-.2-.6-.5-.3-.6.4-.3.3-.5-.2-.5,0-.5-.3-.3-.1-.4,0-.4,0-.4h.2l-.2-.3h.3s-.4-.3-.3-.4h.4l.3.2a.3.3,0,0,1-.1.2s.6-.2.4-.4a2.6,2.6,0,0,0-1.2-.7" transform="translate(-208.5 -140.5)"/><path class="a" d="M250.9,151.6s-.1-.4-.4-.5-.4-.1-.4-.1.3.4.2.6H250a.8.8,0,0,0,.2.5c.2.2.3.4.1.4H250a.6.6,0,0,0,.2.6c.3.2.2.3.2.3s-.2.1-.1.1.4-.1.4.1,0,.4,0,.3l-.6-.4s.4.3.2.5v.2a.3.3,0,0,1,.5.1c.1.3,0,.4,0,.4s.5-.5.4-.8-.5-.8-.4-.9h.2l-.4-.6c.1-.1,0-.2.1-.1l.5.7c0,.1-.1-.7-.3-.9l-.3-.2s-.2-.4-.1-.4h.2s.4.3.4.5h0v-.6" transform="translate(-208.5 -140.5)"/><path class="a" d="M243.5,147.4s-.3,0-.1.3.8.4.6.7a.8.8,0,0,0,0-.5c-.2-.2-.5-.3-.5-.5" transform="translate(-208.5 -140.5)"/><path class="a" d="M244.5,148s-.1.4.1.4-.2.2-.3,0,.1-.5.2-.4" transform="translate(-208.5 -140.5)"/><path class="a" d="M243.2,148.3a.2.2,0,0,0-.1.3c.2.3.8.4.7.7a1.3,1.3,0,0,0-.1-.5c-.2-.2-.5-.2-.5-.5" transform="translate(-208.5 -140.5)"/><path class="a" d="M244.2,148.9s-.1.4.2.4-.3.2-.4,0,.1-.5.2-.4" transform="translate(-208.5 -140.5)"/><path class="a" d="M242.7,149.1s-.3,0-.1.3.8.4.6.7a.5.5,0,0,0-.1-.5c-.1-.2-.5-.2-.4-.5" transform="translate(-208.5 -140.5)"/><path class="a" d="M243.7,149.7s-.1.4.1.4-.2.2-.3,0,.1-.5.2-.4" transform="translate(-208.5 -140.5)"/><path class="a" d="M242,149.7s.3.1.1.4,0,.4.2.6a.3.3,0,0,1,0-.4.4.4,0,0,0-.3-.6" transform="translate(-208.5 -140.5)"/><path class="a" d="M242.6,150s.3.1.2.3a.5.5,0,0,0,.1.7.4.4,0,0,1,.1-.4c.2-.3,0-.6-.4-.6" transform="translate(-208.5 -140.5)"/><path class="a" d="M243.4,150.4s.2.1.1.4-.1.4.2.6a.3.3,0,0,1,0-.4c.2-.2,0-.6-.3-.6" transform="translate(-208.5 -140.5)"/><path class="a" d="M243,151.1a.3.3,0,0,1,.2.4c-.1.3-.1.4.2.7s-.2-.3,0-.5,0-.6-.4-.6" transform="translate(-208.5 -140.5)"/><path class="a" d="M242.3,150.9a.3.3,0,0,1,.2.4c-.1.3-.1.4.2.6a.3.3,0,0,1,0-.4c.2-.2,0-.6-.4-.6" transform="translate(-208.5 -140.5)"/><path class="a" d="M242.1,151.6a.3.3,0,0,1,.2.4c-.2.3-.1.4.1.6a.4.4,0,0,1,.1-.4.4.4,0,0,0-.4-.6" transform="translate(-208.5 -140.5)"/><path class="a" d="M242.9,152a.3.3,0,0,1,.2.4c-.1.3-.1.4.2.6a.3.3,0,0,1,0-.4c.2-.2,0-.6-.4-.6" transform="translate(-208.5 -140.5)"/><path class="a" d="M242.8,153.1s.3.1.2.3-.1.5.2.7a.3.3,0,0,1,0-.4c.2-.3,0-.6-.4-.6" transform="translate(-208.5 -140.5)"/><path class="a" d="M241.5,152.5s0,.4.3.4,0,.3-.2.1a.3.3,0,0,1-.1-.5" transform="translate(-208.5 -140.5)"/><path class="a" d="M241.6,150.4s0,.5.3.5-.1.2-.2.1a.5.5,0,0,1-.1-.6" transform="translate(-208.5 -140.5)"/><path class="a" d="M241.9,154s0,.5.3.5a.2.2,0,0,1-.3.1c-.2-.2-.1-.4,0-.6" transform="translate(-208.5 -140.5)"/><path class="a" d="M242.4,153.6s0,.4.3.4-.1.3-.3.1a.3.3,0,0,1,0-.5" transform="translate(-208.5 -140.5)"/><path class="a" d="M243,154.2s0,.4.3.5,0,.2-.2,0a.3.3,0,0,1-.1-.5" transform="translate(-208.5 -140.5)"/><path class="a" d="M243.7,154.1s0,.4.3.5-.1.2-.3,0-.1-.4,0-.5" transform="translate(-208.5 -140.5)"/><path class="a" d="M243.8,153.1s0,.5.3.5a.2.2,0,0,1-.3.1.4.4,0,0,1,0-.6" transform="translate(-208.5 -140.5)"/><path class="a" d="M245.2,149.6a.5.5,0,0,0,0,.4c.1.3.1.5-.2.6s.2-.2-.1-.4,0-.5.3-.6" transform="translate(-208.5 -140.5)"/><path class="a" d="M246.7,150.6a.4.4,0,0,1-.2.5c-.3.1-.5.2-.5.5s.2-.3.4-.3-.1,0-.1.3a.4.4,0,0,1-.3.4s.5,0,.5-.3a.4.4,0,0,1,.2-.4h-.1a.3.3,0,0,0,.1-.6" transform="translate(-208.5 -140.5)"/><path class="a" d="M246.6,152.1a.4.4,0,0,1-.2.5c-.3.1-.5.2-.5.6s.2-.4.4-.4-.1,0-.1.4a.4.4,0,0,1-.3.4s.5,0,.5-.4a.4.4,0,0,1,.2-.4h-.1a.3.3,0,0,0,.1-.6" transform="translate(-208.5 -140.5)"/><path class="a" d="M246.5,153.5a.4.4,0,0,1-.2.5c-.3.1-.5.2-.5.6s.2-.4.4-.4-.2,0-.2.4a.2.2,0,0,1-.2.3s.5,0,.5-.3a.4.4,0,0,1,.2-.4h-.1a.4.4,0,0,0,.1-.6" transform="translate(-208.5 -140.5)"/><path class="a" d="M247.5,150.6s.1.1-.1.3-.4.3-.4.6.2-.4.2-.2-.2.3-.2.3.4-.1.4-.4.3-.3.1-.6" transform="translate(-208.5 -140.5)"/><path class="a" d="M247.5,149.6a.4.4,0,0,1-.1.4.6.6,0,0,0-.4.6s.2-.5.2-.2-.2.3-.2.3.4-.1.4-.4.3-.4.1-.7" transform="translate(-208.5 -140.5)"/><path class="a" d="M247.7,148.5s.1.1-.2.3a1.3,1.3,0,0,0-.4.6s.3-.4.3-.2a.4.4,0,0,1-.2.3s.4-.1.4-.4.3-.3.1-.6" transform="translate(-208.5 -140.5)"/><path class="a" d="M247.4,151.6s.1.1-.1.3a1.3,1.3,0,0,0-.4.6s.2-.4.2-.2-.2.3-.2.3.4-.1.4-.4.3-.3.1-.6" transform="translate(-208.5 -140.5)"/><path class="a" d="M247.4,152.6a.4.4,0,0,1-.2.3,1.2,1.2,0,0,0-.4.7s.2-.5.3-.2a.4.4,0,0,1-.2.3s.4-.1.4-.4.2-.4.1-.7" transform="translate(-208.5 -140.5)"/><path class="a" d="M247.3,153.5a.4.4,0,0,1-.1.4.6.6,0,0,0-.4.6s.2-.5.2-.2-.2.3-.2.3.4-.1.4-.4.3-.4.1-.7" transform="translate(-208.5 -140.5)"/><path class="a" d="M246.2,148.3a.3.3,0,0,1-.2.4.7.7,0,0,0-.4.6.4.4,0,0,1,.3-.4c.4-.1.5-.4.3-.6" transform="translate(-208.5 -140.5)"/><path class="a" d="M245.9,147.8a.3.3,0,0,1-.2.4.7.7,0,0,0-.4.6.4.4,0,0,1,.3-.4c.3-.1.5-.4.3-.6" transform="translate(-208.5 -140.5)"/><path class="a" d="M245.1,148.8a.3.3,0,0,1-.2.4.6.6,0,0,0-.5.6s0-.3.4-.4a.4.4,0,0,0,.3-.6" transform="translate(-208.5 -140.5)"/><path class="a" d="M246.5,149.4s.1.2-.2.3a.5.5,0,0,0-.4.6.3.3,0,0,1,.3-.3c.3-.1.5-.4.3-.6" transform="translate(-208.5 -140.5)"/><path class="a" d="M244.6,150.8a.4.4,0,0,1-.2.3.7.7,0,0,0-.5.7.4.4,0,0,1,.3-.4c.4-.1.5-.4.4-.6" transform="translate(-208.5 -140.5)"/><path class="a" d="M244.5,151.9s.1.2-.2.3a.7.7,0,0,0-.5.7s0-.3.4-.4a.4.4,0,0,0,.3-.6" transform="translate(-208.5 -140.5)"/><path class="a" d="M245.9,149.6a.8.8,0,0,0-.5.2s.2-.4.5-.2" transform="translate(-208.5 -140.5)"/><path class="a" d="M245.9,149.9a.6.6,0,0,0-.5.3s.2-.5.5-.3" transform="translate(-208.5 -140.5)"/><path class="a" d="M245.9,150.3a.6.6,0,0,0-.5.3s.2-.5.5-.3" transform="translate(-208.5 -140.5)"/><path class="a" d="M245.9,150.9s-.2-.1-.4.2.2-.5.4-.2" transform="translate(-208.5 -140.5)"/><path class="a" d="M244,152.2a.4.4,0,0,0-.5.2s.2-.5.5-.2" transform="translate(-208.5 -140.5)"/><path class="a" d="M247.7,148.1a.8.8,0,0,0-.5.2s.2-.4.5-.2" transform="translate(-208.5 -140.5)"/><path class="a" d="M245.9,147.9a.4.4,0,0,0-.5.2s.2-.5.5-.2" transform="translate(-208.5 -140.5)"/><path class="a" d="M249,148.7s0,.2.4.4.2.5.2.5a.8.8,0,0,0-.2-.7c-.2-.3-.1-.4-.1-.4l.2.2a2.2,2.2,0,0,1-.1-.6v.1s-.2.2-.1.4-.2.1-.2.1" transform="translate(-208.5 -140.5)"/><path class="a" d="M249.9,148.4s-.1.3.6,1,.5,1.1.5,1.1a1.9,1.9,0,0,0-.3-1l-.8-1.1" transform="translate(-208.5 -140.5)"/><path class="a" d="M250.9,151a.6.6,0,0,1,.2.6c0,.4.1.8.5.8a.5.5,0,0,1-.3-.5c0-.4-.1-.8-.4-.9" transform="translate(-208.5 -140.5)"/><path class="a" d="M254.7,150.6s.1.3-.4.5l-.5.2s.5.1.7-.1,0,.2-.3.4.2.1.4,0,.3.1-.1.3l-.6.3a2.3,2.3,0,0,0,.9-.3c.2-.1.2.4-.3.6l-.6.2a3.7,3.7,0,0,0,1.1-.4c.1-.1.2.4-.3.5s.1.2.3,0,.2.3-.2.5l-.6.3a.9.9,0,0,0,.7-.3c.3-.2.3.3-.3.6s-.7.4-.7.4a1.5,1.5,0,0,0,.9-.3c.3-.2.1.2-.4.5l-.7.4.9-.3c.3-.3.1.2-.5.5l-.6.3c.1.1.4.1.7-.1s-.3.4-.4.4.8-.6.9-.8l.4-.5V154c0-.2.2-.5.2-.7a3.5,3.5,0,0,1,.1-.7v-1.1h0c0-.2.1-.4,0-.5l-.3-.3s.1-.2,0-.3-.3-.2-.2.2" transform="translate(-208.5 -140.5)"/><path class="a" d="M253.3,151.1s-.6.4-.2.7a.6.6,0,0,0,.7.1s-.6,0-.6.3.3.3.3.3-.3.1-.1.3h.3a.2.2,0,0,0-.2.3c.1.3.5.2.5.2s-.6.1-.5.4a.2.2,0,0,0,.3.1s-.5.4-.3.5l.2.2a.4.4,0,0,0-.2.3.6.6,0,0,0,.1.4.5.5,0,0,1-.2-.5c.1-.3-.4-.1-.4.1s.1-.4.3-.6,0-.5-.3-.2,0-.2.3-.4-.2-.5-.5-.3.5-.1.5-.4-.4-.2-.6-.1.5-.2.5-.3-.5,0-.5,0a.6.6,0,0,1,.3-.5c.2-.1-.1-.3-.4-.2l.2-.2c.1-.1.1-.4-.3,0s.5-.7.8-.6" transform="translate(-208.5 -140.5)"/><path class="a" d="M252.5,151.4a1.5,1.5,0,0,0-.5,1.1c0,.6.8.7.7,1.5s-.3,1.4.3,1.8a.8.8,0,0,1-.6-.6,1.5,1.5,0,0,1,.1-.9s-.5.7-.2,1.1-.6-.4-.2-.9a1.2,1.2,0,0,0,.1-1s.2.2-.1.6-.2.6-.2.6a.6.6,0,0,1,0-.6c.2-.3.4-.8,0-1.1a.6.6,0,0,1-.2.9s.3-.2.1-.7a.8.8,0,0,1,0-.9,1.1,1.1,0,0,0-.1,1.1,1.3,1.3,0,0,1,.8-2" transform="translate(-208.5 -140.5)"/><path class="a" d="M249.6,143.3l.2.3-.2.2a.4.4,0,0,0,0-.5" transform="translate(-208.5 -140.5)"/><path class="a" d="M247.8,141.3v.3c-.1.2.2,0,.2-.3" transform="translate(-208.5 -140.5)"/><path class="a" d="M245.4,141.5a.4.4,0,0,0,.1.4c.3.1.6-.2.6-.2s-.4.5-.6.4-.4-.3-.3-.5" transform="translate(-208.5 -140.5)"/><path class="a" d="M246.6,141.5l-.2.2s.4-.3.3-.5h-.2" transform="translate(-208.5 -140.5)"/><path class="a" d="M249.7,141.3a.4.4,0,0,0,.1.4c.1.2.4.2.4.2s-.5-.1-.4-.5" transform="translate(-208.5 -140.5)"/><path class="a" d="M257.4,147.7s.2,0,.1-.3l-.3-.4.4.6h-.1" transform="translate(-208.5 -140.5)"/><path class="a" d="M257.9,146.2a.3.3,0,0,0-.3-.3c-.4,0-.5.2-.5.2s.2-.6.5-.3" transform="translate(-208.5 -140.5)"/><path class="a" d="M246.6,143.9a.4.4,0,0,0-.3-.5.8.8,0,0,0-.7.3s.8-.6,1,.2" transform="translate(-208.5 -140.5)"/><path class="a" d="M245.7,143.8s-.1.2.2.3a.6.6,0,0,0,.7-.2.5.5,0,0,1-.5.2c-.4-.1-.4-.3-.4-.3" transform="translate(-208.5 -140.5)"/><path class="a" d="M246.7,143.6a.6.6,0,0,0-.2-.4.5.5,0,0,0-.5.1.5.5,0,0,1,.7.3" transform="translate(-208.5 -140.5)"/><path class="a" d="M245.6,142.9s-.9.5-.6,1.1a.5.5,0,0,1-.2.7s.7-.1.4-.6-.1-.8.5-1.3" transform="translate(-208.5 -140.5)"/><path class="e" d="M250.4,166.9a3.3,3.3,0,0,1-6.5,0,3.3,3.3,0,0,1,6.5,0" transform="translate(-208.5 -140.5)"/><path class="a" d="M247.2,170.1a3.2,3.2,0,0,1-3.3-3.2,3.3,3.3,0,1,1,6.5,0,3.2,3.2,0,0,1-3.2,3.2m0-6.3a3.1,3.1,0,1,0,3.1,3.1,3.1,3.1,0,0,0-3.1-3.1" transform="translate(-208.5 -140.5)"/><path class="a" d="M250.1,166.9a3,3,0,0,1-5.9,0,3,3,0,1,1,5.9,0" transform="translate(-208.5 -140.5)"/><path class="e" d="M246.6,166.8h0l-2.1-.8h0c.1,0,.2.1.1.2a.2.2,0,0,1-.2.2h0l2.2.4Zm-2.2.3h0l2.2-.3h0l-2.2-.2h0a.2.2,0,0,1,.2.2l-.2.2m2.3.1h0l-2.1.9h.3c.1.1,0,.2-.1.2h.1l1.8-1.3Zm.1.1h-.1l-1.7,1.4h.3c.1.1.1.2,0,.2h.1l1.4-1.7Zm.7-.8h.1l1.7-1.4H249a.2.2,0,0,1,0-.3h-.1l-1.4,1.7Zm-.6-.1h0l-.9-2h-.1c.1.1,0,.2,0,.3h-.4l1.3,1.7Zm.4,0h0l.8-2.1h-.3c-.1,0-.1-.1-.1-.2h-.1l-.3,2.2Zm-.5.1h0l-1.4-1.7h-.1a.2.2,0,0,1,0,.3H245l1.7,1.4Zm.6.9h0l.9,2h.1c-.1,0,0-.1.1-.2h.3l-1.3-1.8Zm-.2-1h0l.2-2.1h-.1c0,.1,0,.1-.1.1s-.2,0-.2-.1h-.1l.2,2.1Zm.3.9h0l1.4,1.7h.1c-.1,0-.1-.1,0-.2h.3l-1.7-1.4Zm.2-.3h0l2.1.8h0c-.1-.1-.2-.2-.1-.2l.2-.2h0l-2.2-.3Zm-.7.4h0l-.8,2.1h.1c0-.1.1-.2.2-.1s.1.1.1.2h.1l.4-2.2Zm2.8-.5c0-.1,0-.2.1-.2h0l-2.2.2h0l2.2.3h0c-.1,0-.1-.1-.1-.2m-2.2-.3h0l2.1-.9h-.3c0-.1,0-.2.1-.2h-.1l-1.8,1.3Zm-.4.8h-.1l-.2,2.2h.1l.2-.2c.1,0,.1.1.1.2h.1l-.2-2.2Zm.2-1h.1l1.3-1.7h-.3c-.1-.1-.2-.2-.1-.3h-.1l-.9,2Zm.3.4h0l2.2-.4h0a.2.2,0,0,1-.2-.2c-.1-.1,0-.2.1-.2h0l-2.1.8Zm-.7-.4h.1l-.4-2.2h-.1c0,.1,0,.2-.1.2h-.3l.8,2.1Zm.3,1h0l.3,2.2h.1c0-.1,0-.2.1-.2s.2,0,.3.1h0l-.8-2.1Zm.3-.2h0l1.8,1.3h.1c-.1,0-.1-.1-.1-.2h.3l-2.1-.9Zm-.7.2h-.1l-1.3,1.8h.4c0,.1.1.2,0,.2h.1l.9-2Zm-.2-.8h0l-1.8-1.3h-.1c.1,0,.2.1.1.2h-.3l2.1.9Zm-.1.4h0l-2.2.3h0l.2.2c.1,0,0,.1-.1.2h0l2.1-.8Z" transform="translate(-208.5 -140.5)"/><polygon class="c" points="44.7 31.4 33.9 31.4 33.9 31.1 42.3 31.3 44.7 31.4"/><path class="b" d="M211.1,188.7v3a3.4,3.4,0,0,1,1.2-1.2,3.8,3.8,0,0,1,1.6-.4,3.4,3.4,0,0,1,2.9,1.5,5.7,5.7,0,0,1,1.1,3.8,5.9,5.9,0,0,1-1.1,3.8,4,4,0,0,1-1.5,1,6.4,6.4,0,0,1-5.2-.6,4.1,4.1,0,0,1-1.6-3.6v-8.6h1.3a1.4,1.4,0,0,1,1.3,1.3m4.2,6.6a3.3,3.3,0,0,0-.5-2.1,1.7,1.7,0,0,0-1.5-.8,2.1,2.1,0,0,0-1.7.7,4.8,4.8,0,0,0-.5,2.2,4,4,0,0,0,.5,2.2,2,2,0,0,0,3.2,0,3.4,3.4,0,0,0,.5-2.2" transform="translate(-208.5 -140.5)"/><path class="b" d="M224.7,199.9a4.3,4.3,0,0,1-1.6.5h-1.6a3.5,3.5,0,0,1-2.3-.7,3.4,3.4,0,0,1-.1-4.7,6.9,6.9,0,0,1,2.3-.9h1.1c1.1-.2,1.6-.5,1.6-1a.7.7,0,0,0-.6-.7l-1-.2h-1a.9.9,0,0,0-.6.6h-2.5a2.9,2.9,0,0,1,1.1-1.9,3.9,3.9,0,0,1,2.8-.9,6.6,6.6,0,0,1,3.2.7,2.5,2.5,0,0,1,1.1,2.1v3.4a4.3,4.3,0,0,1-.6,2.4,3.7,3.7,0,0,1-1.3,1.2m-.6-4.6-1.4.5-.9.2-1,.5a1.9,1.9,0,0,0-.2.8,1.2,1.2,0,0,0,.3.9,1.5,1.5,0,0,0,1,.3,2.1,2.1,0,0,0,1.6-.6,2.4,2.4,0,0,0,.6-1.7Z" transform="translate(-208.5 -140.5)"/><path class="b" d="M233.9,197.2h1.8a3.7,3.7,0,0,1-1.5,2.4,4.9,4.9,0,0,1-3,.9,4.2,4.2,0,0,1-3.3-1.4,6.6,6.6,0,0,1,0-7.6,4.2,4.2,0,0,1,3.3-1.4,4.5,4.5,0,0,1,3.5,1.4,5.7,5.7,0,0,1,1,1.9H233a3.3,3.3,0,0,0-.3-.6,2.2,2.2,0,0,0-2.8,0,4.2,4.2,0,0,0-.6,2.5,3.7,3.7,0,0,0,.6,2.4,1.9,1.9,0,0,0,1.5.6l1.1-.2.2-.2.2-.2.3-.3.7-.2" transform="translate(-208.5 -140.5)"/><path class="b" d="M242.4,193.2a1.7,1.7,0,0,0-1.6-.8,2,2,0,0,0-1.6.7,4.1,4.1,0,0,0-.5,2.1v5.1h-2.6V187.4h1.3a1.3,1.3,0,0,1,.9.4,1.2,1.2,0,0,1,.4.9v3a2.9,2.9,0,0,1,1.9-1.5,3.6,3.6,0,0,1,2.3.2,4.9,4.9,0,0,1,1.8,1.4,4.5,4.5,0,0,1,.7,2.7v5.8h-2.5v-5.2a3.4,3.4,0,0,0-.1-1,1.8,1.8,0,0,0-.4-.9" transform="translate(-208.5 -140.5)"/><path class="b" d="M252.8,190.4V194l3.2-3.6h3.1l-3.6,3.8,3.6,6.1H256l-1.8-3.4c-.4-.6-.7-.9-1-.8s-.4.2-.4.4v3.8h-2.6V187.4h1.3a1.3,1.3,0,0,1,.9.4,1.2,1.2,0,0,1,.4.9Z" transform="translate(-208.5 -140.5)"/><path class="b" d="M265.8,193.2a1.6,1.6,0,0,0-1.5-.8,1.9,1.9,0,0,0-1.6.7,3.3,3.3,0,0,0-.6,2.1v5.1h-2.5V187.4h1.3a1.8,1.8,0,0,1,.9.4,1.6,1.6,0,0,1,.3.9v3a3.1,3.1,0,0,1,1.9-1.5,3.9,3.9,0,0,1,4.1,1.6,4.6,4.6,0,0,1,.8,2.7v5.8h-2.5v-5.2c0-.3-.1-.7-.1-1a2,2,0,0,0-.5-.9" transform="translate(-208.5 -140.5)"/><path class="b" d="M270.5,199.4a3.3,3.3,0,0,1-1.1-1.8,9.9,9.9,0,0,1-.3-2.4,7.5,7.5,0,0,1,.3-2,4.5,4.5,0,0,1,.8-1.7,4.1,4.1,0,0,1,2.5-1.3,6.3,6.3,0,0,1,2.8.2,3.8,3.8,0,0,1,2.1,2,6.5,6.5,0,0,1,.6,2.9,6.2,6.2,0,0,1-.2,2,5.2,5.2,0,0,1-.7,1.5,3.6,3.6,0,0,1-2.3,1.5,5.2,5.2,0,0,1-2.5.1,4.2,4.2,0,0,1-2-1m1.8-6.6a4,4,0,0,0-.7,2.6,4.6,4.6,0,0,0,.7,2.4c.1.2.4.3.7.5h1.2a1.9,1.9,0,0,0,1-.8,4.2,4.2,0,0,0,.5-2.2,3.5,3.5,0,0,0-.4-2,1.7,1.7,0,0,0-1-.9h-1.1l-.9.4" transform="translate(-208.5 -140.5)"/><path class="b" d="M285,199.9a4.8,4.8,0,0,1-1.7.5h-1.5a4,4,0,0,1-2.4-.7,3,3,0,0,1-1-2.4,2.7,2.7,0,0,1,.9-2.3,7.5,7.5,0,0,1,2.4-.9h1c1.1-.2,1.7-.5,1.7-1a.7.7,0,0,0-.6-.7l-1.1-.2h-.9a.9.9,0,0,0-.6.6h-2.5a2.7,2.7,0,0,1,1-1.9,4.4,4.4,0,0,1,2.9-.9,6.6,6.6,0,0,1,3.2.7,2.4,2.4,0,0,1,1,2.1v3.4a4.3,4.3,0,0,1-.5,2.4,4.9,4.9,0,0,1-1.3,1.2m-.6-4.6-1.4.5-.9.2a1.9,1.9,0,0,0-1,.5,1.1,1.1,0,0,0-.2.8,1.2,1.2,0,0,0,.3.9,1.3,1.3,0,0,0,1,.3,2.1,2.1,0,0,0,1.6-.6,2.4,2.4,0,0,0,.6-1.7Z" transform="translate(-208.5 -140.5)"/><polygon class="b" points="19.1 69.5 19.1 64.2 22 64.2 22 64.7 19.6 64.7 19.6 66.6 21.9 66.6 21.9 67.1 19.6 67.1 19.6 69 22 69 22 69.5 19.1 69.5"/><path class="b" d="M235,209.6l-.9.3h-2.4v-5.3h2.4l.9.3a2.5,2.5,0,0,1,1.2,2.2,2.7,2.7,0,0,1-1.2,2.3m-.3-4-.8-.4h-1.7v4.3H234a1.1,1.1,0,0,0,.8-.3,1.6,1.6,0,0,0,.6-.8,1.6,1.6,0,0,0,.2-1,2,2,0,0,0-.9-1.7" transform="translate(-208.5 -140.5)"/><path class="b" d="M240.9,208c0,.2-.1.4-.1.6s-.1.3-.1.5a1.6,1.6,0,0,1-1.6,1,1.7,1.7,0,0,1-1.7-1c0-.2-.1-.3-.1-.5s-.1-.4-.1-.6v-3.3h.6v3.8c0,.2.1.3.2.5a1.1,1.1,0,0,0,1.1.6,1.1,1.1,0,0,0,1-.6c.1-.2.2-.3.2-.5v-3.8h.6Z" transform="translate(-208.5 -140.5)"/><path class="b" d="M247.2,208.6a2.7,2.7,0,0,1-2.5,1.5,3,3,0,0,1-2-.8,2.8,2.8,0,0,1-.8-2,2.7,2.7,0,0,1,.8-1.9,3,3,0,0,1,2-.8,2.9,2.9,0,0,1,2.1.9.9.9,0,0,1,.3.5h-.6a2,2,0,0,0-1.8-.9,2.1,2.1,0,0,0-1.6.7,2,2,0,0,0-.6,1.5,2.3,2.3,0,0,0,.6,1.6,2.1,2.1,0,0,0,1.6.7,2.3,2.3,0,0,0,1.1-.3c.3-.1.5-.4.8-.7Z" transform="translate(-208.5 -140.5)"/><path class="b" d="M252.2,210l-.8-1.8H249l-.8,1.8h-.6l2.3-5.3h.6l2.3,5.3Zm-2-4.7-1,2.4h2Z" transform="translate(-208.5 -140.5)"/><polygon class="b" points="45.7 64.7 45.7 69.5 45.1 69.5 45.1 64.7 43.9 64.7 43.9 64.2 46.9 64.2 46.9 64.7 45.7 64.7"/><rect class="b" x="47.7" y="64.2" width="0.5" height="5.33"/><path class="b" d="M262.6,209.3a3,3,0,0,1-2,.8,2.7,2.7,0,0,1-1.9-.8,2.5,2.5,0,0,1-.9-1.9,2.8,2.8,0,0,1,.8-2,2.9,2.9,0,0,1,4,0,2.4,2.4,0,0,1,.8,1.9,2.4,2.4,0,0,1-.8,2m-.4-3.6a2.4,2.4,0,0,0-3.2,0,2.6,2.6,0,0,0-.7,1.7,2.4,2.4,0,0,0,2.3,2.2,2,2,0,0,0,1.6-.7,1.9,1.9,0,0,0,.7-1.6,2.1,2.1,0,0,0-.7-1.6" transform="translate(-208.5 -140.5)"/><polygon class="b" points="59.7 69.5 56.5 64.8 56.5 64.8 56.5 69.5 55.9 69.5 55.9 64.2 56.7 64.2 59.6 68.6 59.7 68.6 59.7 64.2 60.2 64.2 60.2 69.5 59.7 69.5"/></svg>